<?xml version="1.0" encoding="UTF-8"?>
<svg xmlns="http://www.w3.org/2000/svg" id="Layer_1" version="1.1" viewBox="0 0 554.4 459.7">
  <defs>
    <style>
      .st0, .st1 {
        fill: none;
      }

      .st2 {
        fill: #9b2d91;
      }

      .st2, .st3, .st4, .st5 {
        fill-rule: evenodd;
      }

      .st6 {
        fill: #6d6e71;
      }

      .st7 {
        isolation: isolate;
      }

      .st8 {
        fill: #eee;
        stroke: #595959;
      }

      .st8, .st1 {
        stroke-linejoin: round;
      }

      .st9 {
        fill: #fff;
      }

      .st1 {
        stroke: #fe8b3f;
      }

      .st10 {
        fill: #fe8b3f;
      }

      .st3 {
        fill: #2371b9;
      }

      .st4 {
        fill: #e3004b;
      }

      .st5 {
        fill: #3fb748;
      }
    </style>
  </defs>
  <g>
    <path class="st1" d="M458,128.7h0c0-6.8,5.5-12.3,12.3-12.3h49.2c3.3,0,6.4,1.3,8.7,3.6s3.6,5.4,3.6,8.7v115.2c0,6.8-5.5,12.3-12.3,12.3h-49.2c-6.8,0-12.3-5.5-12.3-12.3v-115.2Z"/>
    <path class="st1" d="M378,127.4h0c0-6.8,5.5-12.3,12.3-12.3h49.2c3.3,0,6.4,1.3,8.7,3.6s3.6,5.4,3.6,8.7v115.2c0,6.8-5.5,12.3-12.3,12.3h-49.2c-6.8,0-12.3-5.5-12.3-12.3v-115.2h0Z"/>
    <path class="st8" d="M303.4,167.4h63.1v38.2h-63.1v-38.2Z"/>
    <path d="M326.8,188h-2.5l-.7,2h-.9l2.5-6.4h.8l2.5,6.4h-.9l-.8-2ZM326.6,187.3l-1-2.8-1,2.8h2ZM331.7,184.8c.4,0,.8.1,1.1.3.3.2.6.5.7.9.2.4.3.8.3,1.4,0,.9-.2,1.6-.7,2s-1.1.7-1.8.7-.6-.1-.9-.2v2.2h-.8v-7.2h.6v.4c.4-.3.9-.5,1.5-.5ZM331.2,189.5c.6,0,1-.2,1.3-.6.3-.4.4-.9.4-1.6s-.1-1.1-.4-1.4c-.2-.3-.6-.5-.9-.5s-.5,0-.7.1-.4.2-.6.4v3.3c.3.2.6.3.9.3ZM337.3,184.8c.4,0,.8.1,1.1.3.3.2.6.5.7.9.2.4.3.8.3,1.4,0,.9-.2,1.6-.7,2s-1.1.7-1.8.7-.6-.1-.9-.2v2.2h-.8v-7.2h.6v.4c.5-.3,1-.5,1.5-.5ZM336.8,189.5c.6,0,1-.2,1.3-.6.3-.4.4-.9.4-1.6s-.1-1.1-.4-1.4c-.2-.3-.6-.5-.9-.5s-.5,0-.7.1-.4.2-.6.4v3.3c.3.2.6.3.9.3ZM346.8,189.3v.6h-3.6v-.6h1.4v-4.8l-1.2.7-.3-.6,1.6-1h.7v5.7h1.4Z"/>
    <path class="st8" d="M303.4,210h63.1v38.2h-63.1v-38.2Z"/>
    <path d="M318.8,229.2c.4.1.8.3,1,.6s.4.6.4,1-.2,1-.6,1.3-1,.5-1.7.5h-2.1v-6.3h2.1c.7,0,1.2.1,1.5.4s.5.7.5,1.2-.1.6-.3.9c-.2.2-.4.3-.8.4ZM316.6,226.9v2h1.3c.4,0,.7-.1.9-.3.2-.2.3-.4.3-.8s-.1-.6-.3-.8c-.2-.2-.5-.3-.9-.3h-1.3v.2ZM317.9,231.9c.5,0,.8-.1,1.1-.3.2-.2.4-.5.4-.9s-.1-.7-.4-.9c-.2-.2-.6-.3-1.1-.3h-1.3v2.4h1.3ZM322,226.1c-.1,0-.3-.1-.4-.2-.1-.1-.2-.2-.2-.4s.1-.3.2-.4c.1-.1.2-.2.4-.2s.3.1.4.2c.1.1.2.2.2.4s-.1.3-.2.4c-.2,0-.3.2-.4.2ZM321.6,227.6h.8v5h-.8v-5ZM326.7,227.4c.6,0,.9.1,1.1.4.2.3.3.7.3,1.2v3.5h-.8v-3.4c0-.4-.1-.7-.2-.8s-.3-.2-.6-.2-.5.1-.7.2c-.2.1-.5.3-.8.5v3.8h-.8v-5h.6v.5c.8-.4,1.4-.7,1.9-.7ZM331.2,232.7c-.4,0-.7,0-1-.1s-.5-.2-.8-.4l.2-.6c.4.3.9.5,1.5.5s.6-.1.8-.2c.2-.2.3-.4.3-.6s-.1-.3-.2-.4c-.1-.1-.2-.2-.4-.3-.1-.1-.4-.2-.6-.2-.3-.1-.6-.2-.8-.3-.2-.1-.4-.2-.5-.4s-.2-.4-.2-.7c0-.5.2-.8.5-1.1.3-.2.8-.4,1.3-.4s1.1.2,1.6.5l-.2.6c-.4-.3-.8-.4-1.3-.4s-.5.1-.7.2c-.2.1-.2.3-.2.5s.1.4.3.5.5.3.8.4c.3.1.6.2.8.3.2.1.4.3.5.5s.2.4.2.7c0,.5-.2.8-.5,1.1-.4.2-.8.3-1.4.3ZM336.2,226h.9l-2.7,8.8h-.8l2.6-8.8ZM341.9,231.9v.6h-3.9v-6.3h.9v5.7h3ZM343.5,226.1c-.1,0-.3-.1-.4-.2-.1-.1-.2-.2-.2-.4s.1-.3.2-.4c.1-.1.2-.2.4-.2s.3.1.4.2c.1.1.2.2.2.4s-.1.3-.2.4-.2.2-.4.2ZM343.1,227.6h.8v5h-.8v-5ZM348,227.4c.4,0,.8.1,1.1.3.3.2.6.5.7.9.2.4.3.8.3,1.4s-.1,1.1-.3,1.5c-.2.4-.5.7-.9.9s-.8.3-1.2.3-.9-.1-1.3-.4v.2h-.6v-7.5h.8v2.8c.4-.2.9-.4,1.4-.4ZM347.6,232.1c.6,0,1-.2,1.2-.6.3-.4.4-.9.4-1.6s-.1-1.1-.4-1.4-.6-.5-.9-.5-.5,0-.7.1-.4.2-.6.4v3.2c.3.3.6.4,1,.4ZM352.7,232.7c-.4,0-.7,0-1-.1s-.5-.2-.8-.4l.2-.6c.4.3.9.5,1.5.5s.6-.1.8-.2c.2-.2.3-.4.3-.6s-.1-.3-.2-.4c-.1-.1-.2-.2-.4-.3s-.4-.2-.6-.2c-.3-.1-.6-.2-.8-.3-.2-.1-.4-.2-.5-.4s-.2-.4-.2-.7c0-.5.2-.8.5-1.1.3-.2.8-.4,1.3-.4s1.1.2,1.6.5l-.2.6c-.4-.3-.8-.4-1.3-.4s-.5.1-.7.2c-.2.1-.2.3-.2.5s.1.4.3.5.5.3.8.4c.3.1.6.2.8.3.2.1.4.3.5.5s.2.4.2.7c0,.5-.2.8-.5,1.1-.4.2-.8.3-1.4.3Z"/>
    <path class="st3" d="M303.4,279.6h0c0-4.6,3.7-8.3,8.3-8.3h206.5c2.2,0,4.3.9,5.9,2.4,1.6,1.6,2.4,3.7,2.4,5.9v33.2c0,4.6-3.7,8.3-8.3,8.3h-206.5c-4.6,0-8.3-3.7-8.3-8.3v-33.2h0Z"/>
    <path class="st9" d="M345.8,303.4c-1.4,0-2.6-.3-3.5-.9-1-.6-1.7-1.4-2.2-2.4s-.7-2.1-.7-3.3.2-2.3.7-3.3,1.2-1.8,2.2-2.4,2.2-.9,3.7-.9,1.6.1,2.3.4c.7.3,1.3.6,1.9,1.1l-.7,1.1c-.4-.4-.9-.7-1.5-1-.6-.2-1.3-.4-2-.4-1.1,0-1.9.2-2.7.7-.7.5-1.3,1.1-1.7,1.9-.4.8-.6,1.7-.6,2.7s.2,1.9.5,2.7c.4.8.9,1.4,1.6,1.9s1.6.7,2.5.7c1.5,0,2.9-.6,4-1.8l.6,1.1c-.6.6-1.2,1-2,1.4-.6.5-1.4.7-2.4.7ZM357,303.4c-1,0-1.9-.2-2.7-.7-.7-.5-1.3-1.1-1.6-1.9-.4-.8-.5-1.7-.5-2.7s.2-1.9.5-2.7c.4-.8.9-1.5,1.6-1.9.7-.5,1.6-.7,2.7-.7s1.9.2,2.6.7,1.3,1.1,1.6,1.9c.4.8.5,1.7.5,2.6s-.2,1.9-.5,2.7c-.4.8-.9,1.4-1.6,1.9-.7.6-1.6.8-2.6.8ZM357,302.1c1,0,1.8-.4,2.3-1.1s.8-1.7.8-2.9-.3-2.2-.8-2.9c-.5-.7-1.3-1.1-2.3-1.1s-1.8.4-2.3,1.1-.8,1.7-.8,2.9.3,2.2.8,2.9c.5.8,1.3,1.1,2.3,1.1ZM369.4,292.8c1.1,0,1.8.3,2.3.9.4.6.6,1.4.6,2.5v6.9h-1.7v-6.8c0-.8-.1-1.3-.4-1.7-.2-.3-.7-.5-1.3-.5s-.9.1-1.4.3c-.5.2-1,.5-1.5,1v7.7h-1.7v-10h1.3l.2,1c1.3-.9,2.5-1.3,3.6-1.3ZM381.3,302.7c-.6.4-1.3.6-2.1.6s-1.9-.3-2.4-.9-.8-1.4-.8-2.5v-5.6h-1.6v-.7l1.7-.5.5-2.4h1v2.3h3v1.2h-3v5.3c0,.8.1,1.4.4,1.8s.7.5,1.3.5.5-.1.8-.1c.3-.1.5-.2.8-.4l.4,1.4ZM392,303.1c-.4.2-.9.2-1.3.3-.5,0-.9-.1-1.2-.3-.3-.2-.5-.6-.6-1-1.2.9-2.3,1.4-3.3,1.4s-1.4-.2-1.9-.7-.7-1-.8-1.7c0-.6.2-1.2.5-1.6.4-.4.8-.8,1.5-1,.6-.3,1.5-.6,2.5-.9l1.4-.4v-.7c0-1.5-.6-2.2-1.7-2.2s-1.2.1-1.7.4c-.5.2-1.1.7-1.8,1.4l-.7-1c1.4-1.4,2.9-2.1,4.5-2.1s1.8.3,2.3.8c.5.6.7,1.5.7,2.8v4.9c0,.3,0,.5.1.6s.3.2.5.2.5-.1.8-.2l.2,1ZM384.5,300.8c0,.4.1.7.4.9.3.2.6.3,1,.3s.8-.1,1.3-.3c.5-.2,1-.5,1.6-1v-2.6l-1.1.3c-1.2.4-2,.7-2.5,1-.4.5-.7.9-.7,1.4ZM395,290c-.3,0-.5-.1-.8-.3-.2-.2-.3-.5-.3-.7,0-.3.1-.6.3-.8s.5-.3.8-.3.6.1.8.3.3.5.3.8-.1.5-.3.7c-.2.2-.5.3-.8.3ZM394.2,293.1h1.7v10h-1.7v-10ZM404.5,292.8c1.1,0,1.8.3,2.3.9.4.6.6,1.4.6,2.5v6.9h-1.7v-6.8c0-.8-.1-1.3-.4-1.7-.2-.3-.7-.5-1.3-.5s-.9.1-1.4.3c-.5.2-1,.5-1.5,1v7.7h-1.7v-10h1.3l.2,1c1.3-.9,2.5-1.3,3.6-1.3ZM414.7,302.1c.6,0,1.2-.1,1.7-.4s1-.6,1.4-1.1l.6,1c-.5.6-1.1,1-1.7,1.3s-1.3.5-2.1.5-1.9-.2-2.7-.7c-.7-.5-1.2-1.1-1.6-1.9s-.5-1.7-.5-2.7.2-1.9.5-2.7c.4-.8.9-1.5,1.6-1.9.7-.5,1.6-.7,2.6-.7s1.4.1,1.9.4c.6.3,1,.7,1.4,1.3.3.6.5,1.2.5,2s0,.7-.1,1.1h-6.7v.5c0,1.2.3,2.2.8,3,.6.7,1.4,1,2.4,1ZM414.7,294c-.7,0-1.3.2-1.8.6s-.8,1-1,1.7h5c0-.8-.2-1.4-.6-1.7-.5-.4-1-.6-1.6-.6ZM426.4,294.3c-.6,0-1.2.1-1.7.3-.5.2-1.1.6-1.8,1.1v7.3h-1.7v-10h1.3l.3,1.3c.6-.6,1.2-1,1.8-1.3.6-.2,1.2-.4,1.8-.4v1.7h0ZM441.4,301.8v1.3h-7.8v-12.7h7.4v1.3h-5.7v4.1h5v1.3h-5v4.8h6.1ZM449.3,292.8c1.1,0,1.8.3,2.3.9.4.6.6,1.4.6,2.5v6.9h-1.7v-6.8c0-.8-.1-1.3-.4-1.7-.2-.3-.7-.5-1.3-.5s-.9.1-1.4.3c-.5.2-1,.5-1.5,1v7.7h-1.7v-10h1.3l.2,1c1.3-.9,2.5-1.3,3.6-1.3ZM464.1,294.4l-2.2-.2c.4.6.6,1.2.6,1.9s-.1,1.1-.4,1.7c-.3.5-.7.9-1.2,1.2-.5.3-1.2.5-2,.5s-.8,0-1.2-.1c-.4.3-.6.6-.8.8s-.2.4-.2.7.1.5.3.6c.2.1.5.2,1,.2h3.2c.9,0,1.6.2,2.1.7.5.4.8,1,.8,1.8s-.2,1.4-.7,1.9c-.5.6-1.1,1.1-2,1.4-.8.3-1.8.5-2.8.5s-2.3-.2-3-.8c-.6-.5-.9-1.1-.9-1.8s.1-1,.4-1.3c.3-.4.7-.8,1.2-1.2-.8-.3-1.1-.8-1.1-1.5s.1-.7.3-1.1c.2-.3.6-.7,1.2-1.2-.4-.3-.8-.7-1-1.1-.2-.5-.3-1-.3-1.5s.1-1.1.4-1.6.7-.9,1.2-1.2c.6-.3,1.2-.5,2-.5s1.2.1,1.8.3h3.5v.9h-.2ZM458.8,298.1c.6,0,1.1-.2,1.5-.6s.6-.9.6-1.5-.2-1.1-.5-1.5c-.4-.4-.9-.6-1.5-.6s-1.1.2-1.5.6-.5.9-.5,1.5.2,1.1.5,1.5c.3.5.8.6,1.4.6ZM462.4,304.1c0-.9-.5-1.3-1.6-1.3h-3.3c-.5.4-.8.7-1,1.1-.2.3-.4.7-.4,1.1s.2.9.6,1.1,1,.3,1.7.3,1.4-.1,2-.4c.6-.2,1.1-.5,1.4-.9.4-.3.6-.7.6-1ZM467,290c-.3,0-.5-.1-.8-.3-.2-.2-.3-.5-.3-.7,0-.3.1-.6.3-.8s.5-.3.8-.3.6.1.8.3.3.5.3.8-.1.5-.3.7c-.3.2-.5.3-.8.3ZM466.1,293.1h1.7v10h-1.7v-10ZM476.5,292.8c1.1,0,1.8.3,2.3.9.4.6.6,1.4.6,2.5v6.9h-1.7v-6.8c0-.8-.1-1.3-.4-1.7-.2-.3-.7-.5-1.3-.5s-.9.1-1.4.3c-.5.2-1,.5-1.5,1v7.7h-1.7v-10h1.3l.2,1c1.3-.9,2.4-1.3,3.6-1.3ZM486.7,302.1c.6,0,1.2-.1,1.7-.4s1-.6,1.4-1.1l.6,1c-.5.6-1.1,1-1.7,1.3s-1.3.5-2.1.5-1.9-.2-2.7-.7c-.7-.5-1.2-1.1-1.6-1.9s-.5-1.7-.5-2.7.2-1.9.5-2.7c.4-.8.9-1.5,1.6-1.9.7-.5,1.6-.7,2.6-.7s1.4.1,1.9.4c.6.3,1,.7,1.4,1.3.3.6.5,1.2.5,2s0,.7-.1,1.1h-6.7v.5c0,1.2.3,2.2.8,3,.6.7,1.4,1,2.4,1ZM486.6,294c-.7,0-1.3.2-1.8.6s-.8,1-1,1.7h5c0-.8-.2-1.4-.6-1.7-.4-.4-1-.6-1.6-.6Z"/>
    <path class="st2" d="M303.4,336.4h0c0-4.6,3.7-8.3,8.3-8.3h206.5c2.2,0,4.3.9,5.9,2.4,1.6,1.6,2.4,3.7,2.4,5.9v33.2c0,4.6-3.7,8.3-8.3,8.3h-206.5c-4.6,0-8.3-3.7-8.3-8.3v-33.2h0Z"/>
    <path class="st9" d="M342.4,360.2c-1.3,0-2.4-.3-3.4-.9-.9-.6-1.6-1.4-2.1-2.4s-.7-2.1-.7-3.3.2-2.3.7-3.3,1.2-1.8,2.1-2.4,2.1-.9,3.4-.9,2.5.3,3.4.9,1.6,1.4,2.1,2.4.7,2.1.7,3.3-.2,2.3-.7,3.4c-.5,1-1.2,1.8-2.1,2.4-.9.5-2.1.8-3.4.8ZM342.4,358.8c.9,0,1.8-.2,2.4-.7.7-.5,1.2-1.1,1.5-1.9.4-.8.5-1.7.5-2.7s-.2-1.9-.5-2.7c-.3-.8-.9-1.4-1.5-1.9-.7-.5-1.5-.7-2.4-.7s-1.7.2-2.4.7c-.7.5-1.2,1.1-1.5,1.9s-.5,1.7-.5,2.7.2,1.9.5,2.7c.4.8.9,1.4,1.5,1.9.7.5,1.5.7,2.4.7ZM355.9,349.6c.8,0,1.5.2,2.2.6.6.4,1.1,1,1.5,1.8s.5,1.7.5,2.7c0,1.8-.5,3.2-1.4,4.1s-2.2,1.4-3.7,1.4-1.3-.1-1.9-.3v4.4h-1.7v-14.4h1.3l.2.8c.9-.7,1.9-1.1,3-1.1ZM354.9,358.9c1.2,0,2.1-.4,2.6-1.1.6-.8.8-1.8.8-3.1s-.2-2.3-.7-2.9-1.1-.9-1.8-.9-1,.1-1.4.2c-.4.2-.8.4-1.3.8v6.7c.5.2,1.1.3,1.8.3ZM366.6,358.9c.6,0,1.2-.1,1.7-.4s1-.6,1.4-1.1l.6,1c-.5.6-1.1,1-1.7,1.3s-1.3.5-2.1.5-1.9-.2-2.7-.7c-.7-.5-1.2-1.1-1.6-1.9s-.5-1.7-.5-2.7.2-1.9.5-2.7c.4-.8.9-1.5,1.6-1.9.7-.5,1.6-.7,2.6-.7s1.4.1,1.9.4c.6.3,1,.7,1.4,1.3.3.6.5,1.2.5,2s0,.7-.1,1.1h-6.7v.5c0,1.2.3,2.2.8,3,.6.7,1.3,1,2.4,1ZM366.5,350.8c-.7,0-1.3.2-1.8.6s-.8,1-1,1.7h5c0-.8-.2-1.4-.6-1.7-.5-.4-1-.6-1.6-.6ZM378.2,351.2c-.6,0-1.2.1-1.7.3-.5.2-1.1.6-1.8,1.1v7.3h-1.7v-10h1.3l.3,1.3c.6-.6,1.2-1,1.8-1.3.6-.2,1.2-.4,1.8-.4v1.7h0ZM388.8,359.9c-.4.2-.9.2-1.3.3-.5,0-.9-.1-1.2-.3-.3-.2-.5-.6-.6-1-1.2.9-2.3,1.4-3.3,1.4s-1.4-.2-1.9-.7-.8-1-.8-1.7.2-1.2.5-1.6c.4-.4.8-.8,1.5-1,.6-.3,1.5-.6,2.5-.9l1.4-.4v-.7c0-1.5-.6-2.2-1.7-2.2s-1.2.1-1.7.4c-.5.2-1.1.7-1.8,1.4l-.7-1c1.4-1.4,2.9-2.1,4.5-2.1s1.8.3,2.3.8c.5.6.7,1.5.7,2.8v4.9c0,.3,0,.5.1.6s.3.2.5.2.5-.1.8-.2l.2,1ZM381.3,357.6c0,.4.1.7.4.9.2.2.6.3,1,.3s.8-.1,1.3-.3c.5-.2,1-.5,1.6-1v-2.5l-1.1.3c-1.2.4-2,.7-2.5,1-.5.4-.7.8-.7,1.3ZM396.5,359.5c-.6.4-1.3.6-2.1.6s-1.9-.3-2.4-.9-.8-1.4-.8-2.5v-5.6h-1.6v-.7l1.7-.5.5-2.4h1v2.3h3v1.2h-3v5.3c0,.8.1,1.4.4,1.8s.7.5,1.3.5.5-.1.8-.1c.2-.1.5-.2.8-.4l.4,1.4ZM399.8,346.8c-.3,0-.5-.1-.8-.3-.2-.2-.3-.5-.3-.7,0-.3.1-.6.3-.8s.5-.3.8-.3.6.1.8.3.3.5.3.8-.1.5-.3.7c-.3.2-.5.3-.8.3ZM399,349.9h1.7v10h-1.7v-10ZM409.3,349.6c1.1,0,1.8.3,2.3.9.4.6.6,1.4.6,2.5v6.9h-1.7v-6.8c0-.8-.1-1.3-.4-1.7-.2-.3-.7-.5-1.3-.5s-.9.1-1.4.3c-.5.2-1,.5-1.5,1v7.7h-1.7v-10h1.3l.2,1c1.3-.8,2.5-1.3,3.6-1.3ZM424.1,351.2l-2.2-.2c.4.6.6,1.2.6,1.9s-.1,1.1-.4,1.7c-.3.5-.7.9-1.2,1.2-.5.3-1.2.5-2,.5s-.8,0-1.2-.1c-.4.3-.6.6-.8.8s-.2.4-.2.7.1.5.3.6c.2.1.5.2,1,.2h3.2c.9,0,1.6.2,2.1.7.5.4.8,1,.8,1.8s-.2,1.4-.7,1.9c-.5.6-1.1,1.1-2,1.4-.8.3-1.8.5-2.8.5s-2.3-.2-3-.8c-.6-.5-.9-1.1-.9-1.8s.1-1,.4-1.3c.3-.4.7-.8,1.2-1.2-.8-.3-1.1-.8-1.1-1.5s.1-.7.3-1.1c.2-.3.6-.7,1.2-1.2-.4-.3-.8-.7-1-1.1-.2-.5-.3-1-.3-1.5s.1-1.1.4-1.6.7-.9,1.2-1.2c.6-.3,1.2-.5,2-.5s1.2.1,1.8.3h3.5v.9h-.2ZM418.8,355c.6,0,1.1-.2,1.5-.6s.6-.9.6-1.5-.2-1.1-.5-1.5c-.4-.4-.9-.6-1.5-.6s-1.1.2-1.5.6-.5.9-.5,1.5.2,1.1.5,1.5c.3.4.8.6,1.4.6ZM422.4,360.9c0-.9-.5-1.3-1.6-1.3h-3.3c-.5.4-.8.7-1,1.1-.2.3-.4.7-.4,1.1s.2.9.6,1.1,1,.3,1.7.3,1.4-.1,2-.4c.6-.2,1.1-.5,1.4-.9.4-.3.6-.7.6-1ZM434.3,360.2c-.9,0-1.8-.1-2.5-.3-.7-.2-1.3-.5-1.9-.9l.6-1.3c1,.8,2.3,1.1,3.8,1.1s1.5-.2,2.1-.6.8-1,.8-1.7-.1-.8-.4-1.1c-.3-.3-.6-.5-1-.7s-.9-.4-1.6-.6c-.8-.3-1.5-.6-2-.8s-.9-.6-1.3-1c-.4-.5-.5-1-.5-1.8s.4-2,1.2-2.6c.8-.6,1.8-.9,3.1-.9s2.8.4,3.9,1.2l-.6,1.2c-1-.7-2.1-1.1-3.3-1.1s-1.4.2-1.9.5c-.5.4-.7.9-.7,1.6s.1.8.4,1.1c.3.3.6.5,1,.7s.9.4,1.6.6c.8.3,1.5.6,2,.8.5.2.9.6,1.3,1.1s.5,1,.5,1.8-.2,1.4-.6,2-.9,1-1.6,1.3c-.7.2-1.5.4-2.4.4ZM449.8,349.9l-4.3,11.3c-.4,1.1-.9,2-1.6,2.5-.6.5-1.4.8-2.3.8s-.9-.1-1.3-.2l.2-1.3c.4.1.7.2,1,.2.6,0,1.1-.2,1.6-.6.4-.4.8-1.1,1.2-2v-.4c.1,0-3.8-10.2-3.8-10.2h1.7l3,8.1,2.9-8.1h1.7ZM454.5,360.2c-.8,0-1.4-.1-2-.2-.6-.2-1.1-.4-1.6-.7l.5-1.2c.8.6,1.8.9,3,.9s1.2-.1,1.6-.4.6-.7.6-1.3-.1-.6-.3-.8-.4-.4-.7-.5c-.3-.1-.7-.3-1.2-.5-.7-.2-1.2-.5-1.6-.7s-.8-.5-1-.9c-.3-.4-.4-.8-.4-1.4,0-.9.3-1.6,1-2.1s1.5-.7,2.5-.7,2.3.3,3.2.9l-.5,1.2c-.8-.6-1.7-.8-2.6-.8s-1,.1-1.4.4c-.3.2-.5.6-.5,1.1s.2.8.6,1,.9.5,1.7.8c.7.2,1.2.5,1.6.7s.8.5,1,.9c.3.4.5.9.5,1.5,0,.9-.3,1.7-1,2.2-.9.3-1.8.6-3,.6ZM466.5,359.5c-.6.4-1.3.6-2.1.6s-1.9-.3-2.4-.9-.8-1.4-.8-2.5v-5.6h-1.6v-.7l1.7-.5.5-2.4h1v2.3h3v1.2h-3v5.3c0,.8.1,1.4.4,1.8s.7.5,1.3.5.5-.1.8-.1c.2-.1.5-.2.8-.4l.4,1.4ZM472.9,358.9c.6,0,1.2-.1,1.7-.4s1-.6,1.4-1.1l.6,1c-.5.6-1.1,1-1.7,1.3s-1.3.5-2.1.5-1.9-.2-2.7-.7c-.7-.5-1.2-1.1-1.6-1.9s-.5-1.7-.5-2.7.2-1.9.5-2.7c.4-.8.9-1.5,1.6-1.9.7-.5,1.6-.7,2.6-.7s1.4.1,1.9.4c.6.3,1,.7,1.4,1.3.3.6.5,1.2.5,2s0,.7-.1,1.1h-6.7v.5c0,1.2.3,2.2.8,3,.6.7,1.3,1,2.4,1ZM472.8,350.8c-.7,0-1.3.2-1.8.6s-.8,1-1,1.7h5c0-.8-.2-1.4-.6-1.7-.5-.4-1-.6-1.6-.6ZM490.2,349.6c1.1,0,1.8.3,2.2.9.4.6.6,1.4.6,2.5v6.9h-1.7v-6.8c0-.8-.1-1.3-.3-1.7-.2-.3-.6-.5-1.2-.5s-.9.1-1.3.3c-.4.2-.9.5-1.5,1v7.6h-1.7v-6.8c0-.8-.1-1.3-.3-1.7-.2-.3-.6-.5-1.2-.5s-.9.1-1.3.3c-.4.2-.9.5-1.5,1v7.7h-1.7v-10h1.3l.2,1c1.2-.9,2.3-1.4,3.4-1.4s1.2.1,1.6.4c.4.2.7.6.9,1.1,1.3-.8,2.4-1.3,3.5-1.3Z"/>
    <path class="st5" d="M303.3,393.2h0c0-4.6,3.7-8.3,8.3-8.3h206.5c2.2,0,4.3.9,5.9,2.4,1.6,1.6,2.4,3.7,2.4,5.9v33.2c0,4.6-3.7,8.3-8.3,8.3h-206.5c-4.6,0-8.3-3.7-8.3-8.3v-33.2h0Z"/>
    <path class="st9" d="M354.2,404c1.5,0,2.6.3,3.4,1s1.1,1.6,1.1,2.7-.4,2.1-1.1,2.8c-.8.7-1.9,1-3.4,1h-2.6v5.2h-1.7v-12.7h4.3ZM354.2,410.2c1.9,0,2.8-.8,2.8-2.4s-.2-1.4-.7-1.8-1.2-.7-2.1-.7h-2.6v4.9h2.6ZM366.1,406.4c1.1,0,1.9.3,2.3.9s.6,1.4.6,2.5v6.9h-1.7v-6.8c0-.8-.1-1.3-.4-1.7-.2-.3-.7-.5-1.3-.5s-.9.1-1.4.3c-.5.2-1,.5-1.5,1v7.7h-1.7v-14.9h1.7v5.9c1.2-.9,2.4-1.3,3.4-1.3ZM380.5,406.7l-4.3,11.3c-.4,1.1-.9,2-1.6,2.5-.6.5-1.4.8-2.3.8s-.9-.1-1.3-.2l.2-1.3c.4.1.7.2,1,.2.6,0,1.1-.2,1.6-.6.4-.4.8-1.1,1.2-2v-.4c.1,0-3.8-10.2-3.8-10.2h1.7l3,8.1,2.9-8.1h1.7ZM385.2,417c-.8,0-1.4-.1-2-.2-.6-.2-1.1-.4-1.6-.7l.5-1.2c.8.6,1.8.9,3,.9s1.2-.1,1.6-.4.6-.7.6-1.3-.1-.6-.3-.8-.4-.4-.7-.5c-.3-.1-.7-.3-1.2-.5-.7-.2-1.2-.5-1.6-.7s-.8-.5-1-.9c-.3-.4-.4-.8-.4-1.4,0-.9.3-1.6,1-2.1s1.5-.7,2.5-.7,2.3.3,3.2.9l-.5,1.2c-.8-.6-1.7-.8-2.6-.8s-1,.1-1.4.4c-.3.2-.5.6-.5,1.1s.2.8.6,1,.9.5,1.7.8c.7.2,1.2.5,1.6.7s.8.5,1,.9c.3.4.5.9.5,1.5,0,.9-.3,1.7-1,2.2-.9.4-1.8.6-3,.6ZM392.6,403.7c-.3,0-.5-.1-.8-.3-.2-.2-.3-.5-.3-.7,0-.3.1-.6.3-.8s.5-.3.8-.3.6.1.8.3.3.5.3.8-.1.5-.3.7c-.2.2-.5.3-.8.3ZM391.8,406.7h1.7v10h-1.7v-10ZM401,417c-1,0-1.9-.2-2.7-.7-.7-.5-1.3-1.1-1.6-1.9-.4-.8-.5-1.7-.5-2.7s.2-1.9.5-2.7c.4-.8.9-1.5,1.7-1.9.8-.5,1.7-.7,2.8-.7s1.2.1,1.8.3c.6.2,1,.5,1.4.9l-.6,1.2c-.3-.3-.7-.6-1.1-.8-.4-.2-.9-.3-1.4-.3-1,0-1.9.4-2.4,1.1-.6.7-.9,1.7-.9,2.9s.3,2.2.8,2.9c.5.7,1.3,1.1,2.3,1.1s1.1-.1,1.6-.4.9-.6,1.4-1.1l.6,1.1c-.4.5-.9.9-1.5,1.2-.8.4-1.5.5-2.2.5ZM415.1,416.7c-.4.2-.9.2-1.3.3-.5,0-.9-.1-1.2-.3-.3-.2-.5-.6-.6-1-1.2.9-2.3,1.4-3.3,1.4s-1.4-.2-1.9-.7-.8-1-.8-1.7.2-1.2.5-1.6c.4-.4.8-.8,1.5-1,.6-.3,1.5-.6,2.5-.9l1.4-.4v-.8c0-1.5-.6-2.2-1.7-2.2s-1.2.1-1.7.4c-.5.2-1.1.7-1.8,1.4l-.7-1c1.4-1.4,2.9-2.1,4.5-2.1s1.8.3,2.3.8c.5.6.7,1.5.7,2.8v4.9c0,.3,0,.5.1.6s.3.2.5.2.5-.1.8-.2l.2,1.1ZM407.6,414.5c0,.4.1.7.4.9.2.2.6.3,1,.3s.8-.1,1.3-.3c.5-.2,1-.5,1.6-1v-2.6l-1.1.3c-1.2.4-2,.7-2.5,1-.4.4-.7.8-.7,1.4ZM417.2,401.8h1.7v14.9h-1.7v-14.9ZM430.6,417c-.9,0-1.8-.1-2.5-.3-.7-.2-1.3-.5-1.9-.9l.6-1.3c1,.8,2.3,1.1,3.8,1.1s1.5-.2,2.1-.6.8-1,.8-1.7-.1-.8-.4-1.1c-.3-.3-.6-.5-1-.7s-.9-.4-1.6-.6c-.8-.3-1.5-.6-2-.8-.5-.2-.9-.6-1.3-1-.4-.5-.5-1-.5-1.8s.4-2,1.2-2.6c.8-.6,1.8-.9,3.1-.9s2.8.4,3.9,1.2l-.6,1.2c-1-.7-2.1-1.1-3.3-1.1s-1.4.2-1.9.5c-.5.4-.7.9-.7,1.6s.1.8.4,1.1c.3.3.6.5,1,.7s.9.4,1.6.6c.8.3,1.5.6,2,.8.5.2.9.6,1.3,1.1s.5,1,.5,1.8-.2,1.4-.6,2-.9,1-1.6,1.3c-.6.3-1.4.4-2.4.4ZM442,415.8c.6,0,1.2-.1,1.7-.4s1-.6,1.4-1.1l.6,1c-.5.6-1.1,1-1.7,1.3s-1.3.5-2.1.5-1.9-.2-2.7-.7c-.7-.5-1.2-1.1-1.6-1.9s-.5-1.7-.5-2.7.2-1.9.5-2.7c.4-.8.9-1.5,1.6-1.9.7-.5,1.6-.7,2.6-.7s1.4.1,1.9.4c.6.3,1,.7,1.4,1.3.3.6.5,1.2.5,2s0,.7-.1,1.1h-6.7v.5c0,1.2.3,2.2.8,3,.6.6,1.3,1,2.4,1ZM441.9,407.6c-.7,0-1.3.2-1.8.6s-.8,1-1,1.7h5c0-.8-.2-1.4-.6-1.7-.5-.4-1-.6-1.6-.6ZM453.6,408c-.6,0-1.2.1-1.7.3-.5.2-1.1.6-1.8,1.1v7.3h-1.7v-10h1.3l.3,1.3c.6-.6,1.2-1,1.8-1.3.6-.3,1.2-.4,1.8-.4v1.7h0ZM463.8,406.7l-3.9,10.1h-1.5l-3.9-10.1h1.7l3,8.1,2.9-8.1h1.7ZM469.7,415.8c.6,0,1.2-.1,1.7-.4s1-.6,1.4-1.1l.6,1c-.5.6-1.1,1-1.7,1.3s-1.3.5-2.1.5-1.9-.2-2.7-.7c-.7-.5-1.2-1.1-1.6-1.9s-.5-1.7-.5-2.7.2-1.9.5-2.7c.4-.8.9-1.5,1.6-1.9.7-.5,1.6-.7,2.6-.7s1.4.1,1.9.4c.6.3,1,.7,1.4,1.3.3.6.5,1.2.5,2s0,.7-.1,1.1h-6.7v.5c0,1.2.3,2.2.8,3,.6.6,1.4,1,2.4,1ZM469.6,407.6c-.7,0-1.3.2-1.8.6s-.8,1-1,1.7h5c0-.8-.2-1.4-.6-1.7-.4-.4-.9-.6-1.6-.6ZM481.4,408c-.6,0-1.2.1-1.7.3-.5.2-1.1.6-1.8,1.1v7.3h-1.7v-10h1.3l.3,1.3c.6-.6,1.2-1,1.8-1.3.6-.3,1.2-.4,1.8-.4v1.7h0Z"/>
    <path class="st1" d="M298,127.4h0c0-6.8,5.5-12.3,12.3-12.3h49.2c3.3,0,6.4,1.3,8.7,3.6s3.6,5.4,3.6,8.7v115.2c0,6.8-5.5,12.3-12.3,12.3h-49.2c-6.8,0-12.3-5.5-12.3-12.3v-115.2h0Z"/>
    <path class="st8" d="M383.4,167.4h63.1v38.2h-63.1v-38.2Z"/>
    <path d="M406.8,188h-2.5l-.7,2h-.9l2.5-6.4h.8l2.5,6.4h-.9l-.8-2ZM406.6,187.3l-1-2.8-1,2.8h2ZM411.7,184.8c.4,0,.8.1,1.1.3.3.2.6.5.7.9.2.4.3.8.3,1.4,0,.9-.2,1.6-.7,2s-1.1.7-1.8.7-.6-.1-.9-.2v2.2h-.8v-7.2h.6v.4c.4-.3.9-.5,1.5-.5ZM411.2,189.5c.6,0,1-.2,1.3-.6.3-.4.4-.9.4-1.6s-.1-1.1-.4-1.4c-.2-.3-.6-.5-.9-.5s-.5,0-.7.1-.4.2-.6.4v3.3c.3.2.6.3.9.3ZM417.3,184.8c.4,0,.8.1,1.1.3.3.2.6.5.7.9.2.4.3.8.3,1.4,0,.9-.2,1.6-.7,2s-1.1.7-1.8.7-.6-.1-.9-.2v2.2h-.8v-7.2h.6v.4c.5-.3,1-.5,1.5-.5ZM416.8,189.5c.6,0,1-.2,1.3-.6.3-.4.4-.9.4-1.6s-.1-1.1-.4-1.4c-.2-.3-.6-.5-.9-.5s-.5,0-.7.1-.4.2-.6.4v3.3c.3.2.6.3.9.3ZM422.6,189.4l1.6-1.5c.5-.5.9-1,1.2-1.4.2-.4.4-.8.4-1.1s-.1-.7-.3-.9c-.2-.2-.5-.3-.9-.3s-.6.1-.9.2c-.2.1-.5.3-.8.7l-.3-.5c.3-.3.6-.6.9-.8s.7-.2,1.1-.2c.6,0,1.1.2,1.5.5s.6.8.6,1.3-.1.9-.4,1.4-.7,1-1.4,1.6l-1,.9h3.1v.7h-4.3v-.6h-.1Z"/>
    <path class="st8" d="M383.4,210h63.1v38.2h-63.1v-38.2Z"/>
    <path d="M398.8,229.2c.4.1.8.3,1,.6s.4.6.4,1-.2,1-.6,1.3-1,.5-1.7.5h-2.1v-6.3h2.1c.7,0,1.2.1,1.5.4s.5.7.5,1.2-.1.6-.3.9c-.2.2-.4.3-.8.4ZM396.6,226.9v2h1.3c.4,0,.7-.1.9-.3.2-.2.3-.4.3-.8s-.1-.6-.3-.8c-.2-.2-.5-.3-.9-.3h-1.3v.2ZM397.9,231.9c.5,0,.8-.1,1.1-.3.2-.2.4-.5.4-.9s-.1-.7-.4-.9c-.2-.2-.6-.3-1.1-.3h-1.3v2.4h1.3ZM402,226.1c-.1,0-.3-.1-.4-.2-.1-.1-.2-.2-.2-.4s.1-.3.2-.4c.1-.1.2-.2.4-.2s.3.1.4.2c.1.1.2.2.2.4s-.1.3-.2.4c-.2,0-.3.2-.4.2ZM401.6,227.6h.8v5h-.8v-5ZM406.7,227.4c.6,0,.9.1,1.1.4.2.3.3.7.3,1.2v3.5h-.8v-3.4c0-.4-.1-.7-.2-.8s-.3-.2-.6-.2-.5.1-.7.2c-.2.1-.5.3-.8.5v3.8h-.8v-5h.6v.5c.8-.4,1.4-.7,1.9-.7ZM411.2,232.7c-.4,0-.7,0-1-.1s-.5-.2-.8-.4l.2-.6c.4.3.9.5,1.5.5s.6-.1.8-.2c.2-.2.3-.4.3-.6s-.1-.3-.2-.4c-.1-.1-.2-.2-.4-.3-.1-.1-.4-.2-.6-.2-.3-.1-.6-.2-.8-.3-.2-.1-.4-.2-.5-.4s-.2-.4-.2-.7c0-.5.2-.8.5-1.1.3-.2.8-.4,1.3-.4s1.1.2,1.6.5l-.2.6c-.4-.3-.8-.4-1.3-.4s-.5.1-.7.2c-.2.1-.2.3-.2.5s.1.4.3.5.5.3.8.4c.3.1.6.2.8.3.2.1.4.3.5.5s.2.4.2.7c0,.5-.2.8-.5,1.1-.4.2-.8.3-1.4.3ZM416.2,226h.9l-2.7,8.8h-.8l2.6-8.8ZM421.9,231.9v.6h-3.9v-6.3h.9v5.7h3ZM423.5,226.1c-.1,0-.3-.1-.4-.2-.1-.1-.2-.2-.2-.4s.1-.3.2-.4c.1-.1.2-.2.4-.2s.3.1.4.2c.1.1.2.2.2.4s-.1.3-.2.4-.2.2-.4.2ZM423.1,227.6h.8v5h-.8v-5ZM428,227.4c.4,0,.8.1,1.1.3.3.2.6.5.7.9.2.4.3.8.3,1.4s-.1,1.1-.3,1.5c-.2.4-.5.7-.9.9s-.8.3-1.2.3-.9-.1-1.3-.4v.2h-.6v-7.5h.8v2.8c.4-.2.9-.4,1.4-.4ZM427.6,232.1c.6,0,1-.2,1.2-.6.3-.4.4-.9.4-1.6s-.1-1.1-.4-1.4-.6-.5-.9-.5-.5,0-.7.1-.4.2-.6.4v3.2c.3.3.6.4,1,.4ZM432.7,232.7c-.4,0-.7,0-1-.1s-.5-.2-.8-.4l.2-.6c.4.3.9.5,1.5.5s.6-.1.8-.2c.2-.2.3-.4.3-.6s-.1-.3-.2-.4c-.1-.1-.2-.2-.4-.3s-.4-.2-.6-.2c-.3-.1-.6-.2-.8-.3-.2-.1-.4-.2-.5-.4s-.2-.4-.2-.7c0-.5.2-.8.5-1.1.3-.2.8-.4,1.3-.4s1.1.2,1.6.5l-.2.6c-.4-.3-.8-.4-1.3-.4s-.5.1-.7.2c-.2.1-.2.3-.2.5s.1.4.3.5.5.3.8.4c.3.1.6.2.8.3.2.1.4.3.5.5s.2.4.2.7c0,.5-.2.8-.5,1.1-.4.2-.8.3-1.4.3Z"/>
    <path class="st8" d="M463.4,168.3h63.1v38.2h-63.1v-38.2Z"/>
    <path d="M486.8,188.9h-2.5l-.7,2h-.9l2.5-6.4h.8l2.5,6.4h-.9l-.8-2ZM486.6,188.2l-1-2.8-1,2.8h2ZM491.7,185.7c.4,0,.8.1,1.1.3.3.2.6.5.7.9.2.4.3.8.3,1.4,0,.9-.2,1.6-.7,2s-1.1.7-1.8.7-.6-.1-.9-.2v2.2h-.8v-7.2h.6v.4c.4-.3.9-.5,1.5-.5ZM491.2,190.4c.6,0,1-.2,1.3-.6.3-.4.4-.9.4-1.6s-.1-1.1-.4-1.4-.6-.5-.9-.5-.5,0-.7.1-.4.2-.6.4v3.3c.3.2.6.3.9.3ZM497.3,185.7c.4,0,.8.1,1.1.3.3.2.6.5.7.9.2.4.3.8.3,1.4,0,.9-.2,1.6-.7,2s-1.1.7-1.8.7-.6-.1-.9-.2v2.2h-.8v-7.2h.6v.4c.5-.3,1-.5,1.5-.5ZM496.8,190.4c.6,0,1-.2,1.3-.6.3-.4.4-.9.4-1.6s-.1-1.1-.4-1.4-.6-.5-.9-.5-.5,0-.7.1-.4.2-.6.4v3.3c.3.2.6.3.9.3ZM502.6,190.4l1.6-1.5c.5-.5.9-1,1.2-1.4.2-.4.4-.8.4-1.1s-.1-.7-.3-.9c-.2-.2-.5-.3-.9-.3s-.6.1-.9.2c-.2.1-.5.3-.8.7l-.3-.5c.3-.3.6-.6.9-.8s.7-.2,1.1-.2c.6,0,1.1.2,1.5.5s.6.8.6,1.3-.1.9-.4,1.4-.7,1-1.4,1.6l-1,.9h3.1v.7h-4.3v-.6h-.1Z"/>
    <path class="st8" d="M463.4,210.9h63.1v38.2h-63.1v-38.2Z"/>
    <path d="M478.8,230.2c.4.1.8.3,1,.6s.4.6.4,1-.2,1-.6,1.3-1,.5-1.7.5h-2.1v-6.3h2.1c.7,0,1.2.1,1.5.4s.5.7.5,1.2-.1.6-.3.9c-.2.1-.4.3-.8.4ZM476.6,227.8v2h1.3c.4,0,.7-.1.9-.3.2-.2.3-.4.3-.8s-.1-.6-.3-.8c-.2-.2-.5-.3-.9-.3h-1.3v.2ZM477.9,232.9c.5,0,.8-.1,1.1-.3.2-.2.4-.5.4-.9s-.1-.7-.4-.9c-.2-.2-.6-.3-1.1-.3h-1.3v2.4h1.3ZM482,227c-.1,0-.3-.1-.4-.2-.1-.1-.2-.2-.2-.4s.1-.3.2-.4c.1-.1.2-.2.4-.2s.3.1.4.2c.1.1.2.2.2.4s-.1.3-.2.4c-.2,0-.3.2-.4.2ZM481.6,228.5h.8v5h-.8v-5ZM486.7,228.3c.6,0,.9.1,1.1.4.2.3.3.7.3,1.2v3.5h-.8v-3.4c0-.4-.1-.7-.2-.8s-.3-.2-.6-.2-.5.1-.7.2c-.2.1-.5.3-.8.5v3.8h-.8v-5h.6v.5c.8-.4,1.4-.7,1.9-.7ZM491.2,233.7c-.4,0-.7,0-1-.1s-.5-.2-.8-.4l.2-.6c.4.3.9.5,1.5.5s.6-.1.8-.2c.2-.2.3-.4.3-.6s-.1-.3-.2-.4c-.1-.1-.2-.2-.4-.3-.1-.1-.4-.2-.6-.2-.3-.1-.6-.2-.8-.3-.2-.1-.4-.2-.5-.4s-.2-.4-.2-.7c0-.5.2-.8.5-1.1.3-.2.8-.4,1.3-.4s1.1.2,1.6.5l-.2.6c-.4-.3-.8-.4-1.3-.4s-.5.1-.7.2c-.2.1-.2.3-.2.5s.1.4.3.5.5.3.8.4c.3.1.6.2.8.3.2.1.4.3.5.5s.2.4.2.7c0,.5-.2.8-.5,1.1-.4,0-.8.3-1.4.3ZM496.2,226.9h.9l-2.7,8.8h-.8l2.6-8.8ZM501.9,232.9v.6h-3.9v-6.3h.9v5.7h3ZM503.5,227c-.1,0-.3-.1-.4-.2-.1-.1-.2-.2-.2-.4s.1-.3.2-.4c.1-.1.2-.2.4-.2s.3.1.4.2c.1.1.2.2.2.4s-.1.3-.2.4-.2.2-.4.2ZM503.1,228.5h.8v5h-.8v-5ZM508,228.3c.4,0,.8.1,1.1.3.3.2.6.5.7.9.2.4.3.8.3,1.4s-.1,1.1-.3,1.5c-.2.4-.5.7-.9.9s-.8.3-1.2.3-.9-.1-1.3-.4v.2h-.6v-7.4h.8v2.8c.4-.3.9-.5,1.4-.5ZM507.6,233c.6,0,1-.2,1.2-.6.3-.4.4-.9.4-1.6s-.1-1.1-.4-1.4-.6-.5-.9-.5-.5,0-.7.1-.4.2-.6.4v3.2c.3.3.6.4,1,.4ZM512.7,233.7c-.4,0-.7,0-1-.1s-.5-.2-.8-.4l.2-.6c.4.3.9.5,1.5.5s.6-.1.8-.2c.2-.2.3-.4.3-.6s0-.3-.2-.4c0-.1-.2-.2-.4-.3s-.4-.2-.6-.2c-.3-.1-.6-.2-.8-.3-.2-.1-.4-.2-.5-.4s-.2-.4-.2-.7c0-.5.2-.8.5-1.1.3-.2.8-.4,1.3-.4s1.1.2,1.6.5l-.2.6c-.4-.3-.8-.4-1.3-.4s-.5.1-.7.2c-.2.1-.2.3-.2.5s0,.4.3.5.5.3.8.4c.3.1.6.2.8.3s.4.3.5.5.2.4.2.7c0,.5-.2.8-.5,1.1-.4,0-.8.3-1.4.3Z"/>
    <path class="st4" d="M34.1,335.6h0c0-4.6,3.7-8.3,8.3-8.3h206.5c2.2,0,4.3.9,5.9,2.4,1.6,1.6,2.4,3.7,2.4,5.9v33.2c0,4.6-3.7,8.3-8.3,8.3H42.4c-4.6,0-8.3-3.7-8.3-8.3,0,0,0-33.2,0-33.2Z"/>
    <path class="st9" d="M109.6,346.4v12.7h-1.7v-6.1h-6.9v6.1h-1.7v-12.7h1.7v5.3h6.9v-5.3h1.7ZM121.5,349.1l-4.3,11.3c-.4,1.1-.9,2-1.6,2.5-.6.5-1.4.8-2.3.8s-.9-.1-1.3-.2l.2-1.3c.4.1.7.2,1,.2.6,0,1.1-.2,1.6-.6.4-.4.8-1.1,1.2-2v-.4c0,0-3.8-10.2-3.8-10.2h1.7l3,8.1,2.9-8.1h1.7ZM128,348.8c.8,0,1.5.2,2.2.6.6.4,1.1,1,1.5,1.8s.5,1.7.5,2.7c0,1.8-.5,3.2-1.4,4.1s-2.2,1.4-3.7,1.4-1.3-.1-1.9-.3v4.4h-1.7v-14.4h1.3l.2.8c.9-.7,1.9-1.1,3-1.1ZM127,358.1c1.2,0,2.1-.4,2.6-1.1.6-.8.8-1.8.8-3.1s-.2-2.3-.7-2.9-1.1-.9-1.8-.9-1,.1-1.4.2c-.4.2-.8.4-1.3.8v6.7c.5.2,1.1.3,1.8.3ZM138.7,358.1c.6,0,1.2-.1,1.7-.4s1-.6,1.4-1.1l.6,1c-.5.6-1.1,1-1.7,1.3-.6.3-1.3.5-2.1.5s-1.9-.2-2.7-.7c-.7-.5-1.2-1.1-1.6-1.9-.4-.8-.5-1.7-.5-2.7s.2-1.9.5-2.7c.4-.8.9-1.5,1.6-1.9.7-.5,1.6-.7,2.6-.7s1.4.1,1.9.4c.6.3,1,.7,1.4,1.3.3.6.5,1.2.5,2s0,.7-.1,1.1h-6.7v.5c0,1.2.3,2.2.8,3,.6.7,1.4,1,2.4,1ZM138.6,350c-.7,0-1.3.2-1.8.6s-.8,1-1,1.7h5c0-.8-.2-1.4-.6-1.7-.4-.4-.9-.6-1.6-.6ZM150.4,350.3c-.6,0-1.2.1-1.7.3-.5.2-1.1.6-1.8,1.1v7.3h-1.7v-10h1.3l.3,1.3c.6-.6,1.2-1,1.8-1.3.6-.2,1.2-.4,1.8-.4v1.7h0ZM160.5,349.1l-3.9,10.1h-1.5l-3.9-10.1h1.7l3,8.1,2.9-8.1h1.7ZM163.5,346c-.3,0-.5-.1-.8-.3-.2-.2-.3-.5-.3-.7,0-.3.1-.6.3-.8.2-.2.5-.3.8-.3s.6.1.8.3c.2.2.3.5.3.8s-.1.5-.3.7c-.3.2-.5.3-.8.3ZM162.7,349.1h1.7v10h-1.7v-10ZM170.6,359.4c-.8,0-1.4-.1-2-.2-.6-.2-1.1-.4-1.6-.7l.5-1.2c.8.6,1.8.9,3,.9s1.2-.1,1.6-.4c.4-.3.6-.7.6-1.3s-.1-.6-.3-.8c-.2-.2-.4-.4-.7-.5s-.7-.3-1.2-.5c-.7-.2-1.2-.5-1.6-.7-.4-.2-.8-.5-1-.9-.3-.4-.4-.8-.4-1.4,0-.9.3-1.6,1-2.1s1.5-.7,2.5-.7,2.3.3,3.2.9l-.5,1.2c-.8-.6-1.7-.8-2.6-.8s-1,.1-1.4.4c-.3.2-.5.6-.5,1.1s.2.8.6,1,.9.5,1.7.8c.7.2,1.2.5,1.6.7.4.2.8.5,1,.9.3.4.5.9.5,1.5,0,.9-.3,1.7-1,2.2-.9.3-1.8.6-3,.6ZM181,359.4c-1,0-1.9-.2-2.7-.7-.7-.5-1.3-1.1-1.6-1.9-.4-.8-.5-1.7-.5-2.7s.2-1.9.5-2.7c.4-.8.9-1.5,1.6-1.9.7-.5,1.6-.7,2.7-.7s1.9.2,2.6.7c.7.5,1.3,1.1,1.6,1.9.4.8.5,1.7.5,2.6s-.2,1.9-.5,2.7c-.4.8-.9,1.4-1.6,1.9-.7.6-1.6.8-2.6.8ZM181,358.1c1,0,1.8-.4,2.3-1.1s.8-1.7.8-2.9-.3-2.2-.8-2.9c-.5-.7-1.3-1.1-2.3-1.1s-1.8.4-2.3,1.1-.8,1.7-.8,2.9.3,2.2.8,2.9c.5.8,1.3,1.1,2.3,1.1ZM193.6,350.3c-.6,0-1.2.1-1.7.3-.5.2-1.1.6-1.8,1.1v7.3h-1.7v-10h1.3l.3,1.3c.6-.6,1.2-1,1.8-1.3.6-.2,1.2-.4,1.8-.4v1.7h0Z"/>
    <path class="st5" d="M34.1,393.2h0c0-4.6,3.7-8.3,8.3-8.3h206.5c2.2,0,4.3.9,5.9,2.4,1.6,1.6,2.4,3.7,2.4,5.9v33.2c0,4.6-3.7,8.3-8.3,8.3H42.4c-4.6,0-8.3-3.7-8.3-8.3,0,0,0-33.2,0-33.2Z"/>
    <path class="st9" d="M85,404c1.5,0,2.6.3,3.4,1s1.1,1.6,1.1,2.7-.4,2.1-1.1,2.8c-.8.7-1.9,1-3.4,1h-2.6v5.2h-1.7v-12.7h4.3ZM85,410.2c1.9,0,2.8-.8,2.8-2.4s-.2-1.4-.7-1.8-1.2-.7-2.1-.7h-2.6v4.9h2.6ZM96.9,406.4c1.1,0,1.9.3,2.3.9s.6,1.4.6,2.5v6.9h-1.7v-6.8c0-.8,0-1.3-.4-1.7-.2-.3-.7-.5-1.3-.5s-.9.1-1.4.3c-.5.2-1,.5-1.5,1v7.7h-1.7v-14.9h1.7v5.9c1.2-.9,2.3-1.3,3.4-1.3ZM111.3,406.7l-4.3,11.3c-.4,1.1-.9,2-1.6,2.5-.6.5-1.4.8-2.3.8s-.9-.1-1.3-.2l.2-1.3c.4.1.7.2,1,.2.6,0,1.1-.2,1.6-.6.4-.4.8-1.1,1.2-2v-.4c0,0-3.8-10.2-3.8-10.2h1.7l3,8.1,2.9-8.1h1.7ZM116,417c-.8,0-1.4-.1-2-.2-.6-.2-1.1-.4-1.6-.7l.5-1.2c.8.6,1.8.9,3,.9s1.2-.1,1.6-.4.6-.7.6-1.3,0-.6-.3-.8c-.2-.2-.4-.4-.7-.5-.3-.1-.7-.3-1.2-.5-.7-.2-1.2-.5-1.6-.7s-.8-.5-1-.9c-.3-.4-.4-.8-.4-1.4,0-.9.3-1.6,1-2.1s1.5-.7,2.5-.7,2.3.3,3.2.9l-.5,1.2c-.8-.6-1.7-.8-2.6-.8s-1,.1-1.4.4c-.3.2-.5.6-.5,1.1s.2.8.6,1,.9.5,1.7.8c.7.2,1.2.5,1.6.7s.8.5,1,.9c.3.4.5.9.5,1.5,0,.9-.3,1.7-1,2.2-.9.4-1.8.6-3,.6ZM123.4,403.7c-.3,0-.5-.1-.8-.3-.2-.2-.3-.5-.3-.7,0-.3,0-.6.3-.8.2-.2.5-.3.8-.3s.6.1.8.3c.2.2.3.5.3.8s0,.5-.3.7c-.3.2-.5.3-.8.3ZM122.6,406.7h1.7v10h-1.7v-10ZM131.8,417c-1,0-1.9-.2-2.7-.7-.7-.5-1.3-1.1-1.6-1.9-.4-.8-.5-1.7-.5-2.7s.2-1.9.5-2.7c.4-.8.9-1.5,1.7-1.9.8-.5,1.7-.7,2.8-.7s1.2.1,1.8.3c.6.2,1,.5,1.4.9l-.6,1.2c-.3-.3-.7-.6-1.1-.8-.4-.2-.9-.3-1.4-.3-1,0-1.9.4-2.4,1.1-.6.7-.9,1.7-.9,2.9s.3,2.2.8,2.9c.5.7,1.3,1.1,2.3,1.1s1.1-.1,1.6-.4.9-.6,1.4-1.1l.6,1.1c-.4.5-.9.9-1.5,1.2-.8.4-1.5.5-2.2.5ZM145.8,416.7c-.4.2-.9.2-1.3.3-.5,0-.9-.1-1.2-.3-.3-.2-.5-.6-.6-1-1.2.9-2.3,1.4-3.3,1.4s-1.4-.2-1.9-.7-.8-1-.8-1.7.2-1.2.5-1.6c.4-.4.8-.8,1.5-1,.6-.3,1.5-.6,2.5-.9l1.4-.4v-.8c0-1.5-.6-2.2-1.7-2.2s-1.2.1-1.7.4c-.5.2-1.1.7-1.8,1.4l-.7-1c1.4-1.4,2.9-2.1,4.5-2.1s1.8.3,2.3.8c.5.6.7,1.5.7,2.8v4.9c0,.3,0,.5.1.6s.3.2.5.2.5-.1.8-.2l.2,1.1ZM138.4,414.5c0,.4.1.7.4.9.2.2.6.3,1,.3s.8-.1,1.3-.3c.5-.2,1-.5,1.6-1v-2.6l-1.1.3c-1.2.4-2,.7-2.5,1-.5.4-.7.8-.7,1.4ZM148,401.8h1.7v14.9h-1.7v-14.9ZM161.4,417c-.9,0-1.8-.1-2.5-.3-.7-.2-1.3-.5-1.9-.9l.6-1.3c1,.8,2.3,1.1,3.8,1.1s1.5-.2,2.1-.6.8-1,.8-1.7-.1-.8-.4-1.1c-.3-.3-.6-.5-1-.7s-.9-.4-1.6-.6c-.8-.3-1.5-.6-2-.8s-.9-.6-1.3-1c-.4-.5-.5-1-.5-1.8s.4-2,1.2-2.6,1.8-.9,3.1-.9,2.8.4,3.9,1.2l-.6,1.2c-1-.7-2.1-1.1-3.3-1.1s-1.4.2-1.9.5c-.5.4-.7.9-.7,1.6s.1.8.4,1.1c.3.3.6.5,1,.7s.9.4,1.6.6c.8.3,1.5.6,2,.8.5.2.9.6,1.3,1.1.4.5.5,1,.5,1.8s-.2,1.4-.6,2-.9,1-1.6,1.3c-.6.3-1.5.4-2.4.4ZM172.8,415.8c.6,0,1.2-.1,1.7-.4s1-.6,1.4-1.1l.6,1c-.5.6-1.1,1-1.7,1.3-.6.3-1.3.5-2.1.5s-1.9-.2-2.7-.7c-.7-.5-1.2-1.1-1.6-1.9-.4-.8-.5-1.7-.5-2.7s.2-1.9.5-2.7c.4-.8.9-1.5,1.6-1.9.7-.5,1.6-.7,2.6-.7s1.4.1,1.9.4c.6.3,1,.7,1.4,1.3.3.6.5,1.2.5,2s0,.7-.1,1.1h-6.7v.5c0,1.2.3,2.2.8,3,.6.6,1.3,1,2.4,1ZM172.7,407.6c-.7,0-1.3.2-1.8.6s-.8,1-1,1.7h5c0-.8-.2-1.4-.6-1.7-.5-.4-1-.6-1.6-.6ZM184.4,408c-.6,0-1.2.1-1.7.3-.5.2-1.1.6-1.8,1.1v7.3h-1.7v-10h1.3l.3,1.3c.6-.6,1.2-1,1.8-1.3s1.2-.4,1.8-.4v1.7h0ZM194.5,406.7l-3.9,10.1h-1.5l-3.9-10.1h1.7l3,8.1,2.9-8.1h1.7ZM200.5,415.8c.6,0,1.2-.1,1.7-.4s1-.6,1.4-1.1l.6,1c-.5.6-1.1,1-1.7,1.3-.6.3-1.3.5-2.1.5s-1.9-.2-2.7-.7c-.7-.5-1.2-1.1-1.6-1.9-.4-.8-.5-1.7-.5-2.7s.2-1.9.5-2.7c.4-.8.9-1.5,1.6-1.9.7-.5,1.6-.7,2.6-.7s1.4.1,1.9.4c.6.3,1,.7,1.4,1.3.3.6.5,1.2.5,2s0,.7-.1,1.1h-6.7v.5c0,1.2.3,2.2.8,3,.6.6,1.4,1,2.4,1ZM200.4,407.6c-.7,0-1.3.2-1.8.6s-.8,1-1,1.7h5c0-.8-.2-1.4-.6-1.7-.4-.4-1-.6-1.6-.6ZM212.2,408c-.6,0-1.2.1-1.7.3-.5.2-1.1.6-1.8,1.1v7.3h-1.7v-10h1.3l.3,1.3c.6-.6,1.2-1,1.8-1.3s1.2-.4,1.8-.4v1.7h0Z"/>
    <path class="st1" d="M187.7,127.6h0c0-6.9,5.6-12.5,12.5-12.5h49.8c3.3,0,6.5,1.3,8.8,3.7,2.3,2.3,3.7,5.5,3.7,8.8v181c0,6.9-5.6,12.5-12.5,12.5h-49.9c-6.9,0-12.5-5.6-12.5-12.5V127.6h0Z"/>
    <path class="st1" d="M22.6,140.6h0c0-14.1,11.4-25.5,25.5-25.5h102c6.8,0,13.3,2.7,18,7.5,4.8,4.8,7.5,11.3,7.5,18v154.9c0,14.1-11.4,25.5-25.5,25.5H48.1c-14.1,0-25.5-11.4-25.5-25.5,0,0,0-154.9,0-154.9Z"/>
    <g>
      <path class="st8" d="M34.1,127.4h63.1v35.6h-63.1v-35.6Z"/>
      <path d="M57.6,146.7h-2.6l-.7,2h-.9l2.5-6.4h.8l2.5,6.4h-.9l-.7-2ZM57.3,146l-1-2.8-1,2.8h2ZM62.5,143.5c.4,0,.8.1,1.1.3s.6.5.7.9c.2.4.3.8.3,1.4,0,.9-.2,1.6-.7,2-.5.5-1.1.7-1.8.7s-.6-.1-.9-.2v2.2h-.8v-7.2h.6v.4c.4-.3.9-.5,1.5-.5ZM62,148.2c.6,0,1-.2,1.3-.6.3-.4.4-.9.4-1.6s0-1.1-.4-1.4-.6-.5-.9-.5-.5,0-.7.1-.4.2-.6.4v3.3c.2.2.5.3.9.3ZM68.1,143.5c.4,0,.8.1,1.1.3.3.2.6.5.7.9.2.4.3.8.3,1.4,0,.9-.2,1.6-.7,2s-1.1.7-1.8.7-.6-.1-.9-.2v2.2h-.8v-7.2h.6v.4c.4-.3.9-.5,1.5-.5ZM67.6,148.2c.6,0,1-.2,1.3-.6.3-.4.4-.9.4-1.6s0-1.1-.4-1.4-.6-.5-.9-.5-.5,0-.7.1-.4.2-.6.4v3.3c.3.2.6.3.9.3ZM77.6,148v.6h-3.6v-.6h1.4v-4.8l-1.2.7-.3-.6,1.6-1h.7v5.7h1.4Z"/>
    </g>
    <g>
      <path class="st8" d="M34.1,167.4h63.1v36.5h-63.1v-36.5Z"/>
      <path d="M49.6,185.7c.4.1.8.3,1,.6s.4.6.4,1-.2,1-.6,1.3c-.4.3-1,.5-1.7.5h-2.1v-6.3h2.1c.7,0,1.2.1,1.5.4s.5.7.5,1.2,0,.6-.3.9c-.2.2-.5.3-.8.4ZM47.4,183.4v2h1.3c.4,0,.7-.1.9-.3s.3-.4.3-.8,0-.6-.3-.8-.5-.3-.9-.3h-1.3v.2ZM48.7,188.4c.5,0,.8-.1,1.1-.3.2-.2.4-.5.4-.9s0-.7-.4-.9c-.2-.2-.6-.3-1.1-.3h-1.3v2.4h1.3ZM52.7,182.5c0,0-.3-.1-.4-.2,0-.1-.2-.2-.2-.4s0-.3.2-.4c0-.1.2-.2.4-.2s.3.1.4.2c0,.1.2.2.2.4s0,.3-.2.4c-.1.2-.2.2-.4.2ZM52.3,184.1h.8v5h-.8v-5ZM57.5,183.9c.6,0,.9.1,1.1.4.2.3.3.7.3,1.2v3.5h-.8v-3.4c0-.4,0-.7-.2-.8,0-.2-.3-.2-.6-.2s-.5.1-.7.2c-.2.1-.5.3-.8.5v3.8h-.8v-5h.6v.5c.8-.5,1.3-.7,1.9-.7ZM62,189.2c-.4,0-.7,0-1-.1s-.5-.2-.8-.4l.2-.6c.4.3.9.5,1.5.5s.6-.1.8-.2c.2-.2.3-.4.3-.6s0-.3-.2-.4c0-.1-.2-.2-.4-.3,0-.1-.4-.2-.6-.2-.3-.1-.6-.2-.8-.3s-.4-.2-.5-.4-.2-.4-.2-.7c0-.5.2-.8.5-1.1.3-.2.8-.4,1.3-.4s1.1.2,1.6.5l-.2.6c-.4-.3-.8-.4-1.3-.4s-.5.1-.7.2c-.2.1-.2.3-.2.5s0,.4.3.5.5.3.8.4c.3.1.6.2.8.3s.4.3.5.5.2.4.2.7c0,.5-.2.8-.5,1.1-.4.2-.8.3-1.4.3ZM66.9,182.5h.9l-2.7,8.8h-.8l2.6-8.8ZM72.6,188.4v.6h-3.9v-6.3h.9v5.7h3ZM74.3,182.5c0,0-.3-.1-.4-.2,0-.1-.2-.2-.2-.4s0-.3.2-.4c0-.1.2-.2.4-.2s.3.1.4.2c0,.1.2.2.2.4s0,.3-.2.4c-.1.2-.3.2-.4.2ZM73.9,184.1h.8v5h-.8v-5ZM78.8,183.9c.4,0,.8.1,1.1.3.3.2.6.5.7.9.2.4.3.8.3,1.4s0,1.1-.3,1.5c-.2.4-.5.7-.9.9s-.8.3-1.2.3-.9-.1-1.3-.4v.2h-.6v-7.5h.8v2.8c.4-.2.8-.4,1.4-.4ZM78.4,188.6c.6,0,1-.2,1.2-.6.3-.4.4-.9.4-1.6s0-1.1-.4-1.4c-.2-.3-.6-.5-.9-.5s-.5,0-.7.1-.4.2-.6.4v3.2c.3.3.6.4,1,.4ZM83.5,189.2c-.4,0-.7,0-1-.1s-.5-.2-.8-.4l.2-.6c.4.3.9.5,1.5.5s.6-.1.8-.2c.2-.2.3-.4.3-.6s0-.3-.2-.4c0-.1-.2-.2-.4-.3,0-.1-.4-.2-.6-.2-.3-.1-.6-.2-.8-.3-.2-.1-.4-.2-.5-.4s-.2-.4-.2-.7c0-.5.2-.8.5-1.1.3-.2.8-.4,1.3-.4s1.1.2,1.6.5l-.2.5c-.4-.3-.8-.4-1.3-.4s-.5.1-.7.2c-.2.1-.2.3-.2.5s0,.4.3.5c.2.1.5.3.8.4.3.1.6.2.8.3.2.1.4.3.5.5s.2.4.2.7c0,.5-.2.8-.5,1.1-.4.3-.8.4-1.4.4Z"/>
    </g>
    <g>
      <path class="st8" d="M101.7,127.4h63.1v35.6h-63.1s0-35.6,0-35.6Z"/>
      <path d="M125.1,146.7h-2.5l-.7,2h-.9l2.5-6.4h.8l2.5,6.4h-.9l-.8-2ZM124.9,146l-1-2.8-1,2.8h2ZM130,143.5c.4,0,.8.1,1.1.3s.6.5.7.9c.2.4.3.8.3,1.4,0,.9-.2,1.6-.7,2s-1.1.7-1.8.7-.6-.1-.9-.2v2.2h-.8v-7.2h.6v.4c.5-.3,1-.5,1.5-.5ZM129.5,148.2c.6,0,1-.2,1.3-.6.3-.4.4-.9.4-1.6s-.1-1.1-.4-1.4-.6-.5-.9-.5-.5,0-.7.1-.4.2-.6.4v3.3c.3.2.6.3.9.3ZM135.7,143.5c.4,0,.8.1,1.1.3s.6.5.7.9c.2.4.3.8.3,1.4,0,.9-.2,1.6-.7,2s-1.1.7-1.8.7-.6-.1-.9-.2v2.2h-.8v-7.2h.6v.4c.4-.3.9-.5,1.5-.5ZM135.2,148.2c.6,0,1-.2,1.3-.6.3-.4.4-.9.4-1.6s-.1-1.1-.4-1.4-.6-.5-.9-.5-.5,0-.7.1-.4.2-.6.4v3.3c.2.2.5.3.9.3ZM140.9,148.2l1.6-1.5c.5-.5.9-1,1.2-1.4.2-.4.4-.8.4-1.1s-.1-.7-.3-.9-.5-.3-.9-.3-.6.1-.9.2c-.2.1-.5.3-.8.7l-.3-.5c.3-.3.6-.6.9-.8.3-.2.7-.2,1.1-.2.6,0,1.1.2,1.5.5s.6.8.6,1.3-.1.9-.4,1.4c-.3.5-.7,1-1.4,1.6l-1,.9h3.1v.7h-4.3v-.6h-.1Z"/>
    </g>
    <g>
      <path class="st8" d="M101.7,167.4h63.1v36.5h-63.1s0-36.5,0-36.5Z"/>
      <path d="M117.2,185.7c.4.1.8.3,1,.6s.4.6.4,1-.2,1-.6,1.3-1,.5-1.7.5h-2.1v-6.3h2.1c.7,0,1.2.1,1.5.4s.5.7.5,1.2,0,.6-.3.9c-.2.2-.5.3-.8.4ZM115,183.4v2h1.3c.4,0,.7-.1.9-.3.2-.2.3-.4.3-.8s0-.6-.3-.8c-.2-.2-.5-.3-.9-.3h-1.3v.2ZM116.2,188.4c.5,0,.8-.1,1.1-.3.2-.2.4-.5.4-.9s0-.7-.4-.9c-.2-.2-.6-.3-1.1-.3h-1.2v2.4h1.2ZM120.3,182.5c0,0-.3-.1-.4-.2,0-.1-.2-.2-.2-.4s0-.3.2-.4c0-.1.2-.2.4-.2s.3.1.4.2c0,.1.2.2.2.4s0,.3-.2.4c-.1.2-.2.2-.4.2ZM119.9,184.1h.8v5h-.8v-5ZM125.1,183.9c.6,0,.9.1,1.1.4.2.3.3.7.3,1.2v3.5h-.8v-3.4c0-.4,0-.7-.2-.8,0-.2-.3-.2-.6-.2s-.5.1-.7.2c-.2.1-.5.3-.8.5v3.8h-.8v-5h.6v.5c.7-.5,1.3-.7,1.9-.7ZM129.6,189.2c-.4,0-.7,0-1-.1s-.5-.2-.8-.4l.2-.6c.4.3.9.5,1.5.5s.6-.1.8-.2c.2-.2.3-.4.3-.6s-.1-.3-.2-.4-.2-.2-.4-.3c-.1-.1-.4-.2-.6-.2-.3-.1-.6-.2-.8-.3s-.4-.2-.5-.4-.2-.4-.2-.7c0-.5.2-.8.5-1.1.3-.2.8-.4,1.3-.4s1.1.2,1.6.5l-.2.6c-.4-.3-.8-.4-1.3-.4s-.5.1-.7.2c-.2.1-.2.3-.2.5s.1.4.3.5.5.3.8.4c.3.1.6.2.8.3s.4.3.5.5.2.4.2.7c0,.5-.2.8-.5,1.1-.4.2-.9.3-1.4.3ZM134.5,182.5h.9l-2.7,8.8h-.8l2.6-8.8ZM140.2,188.4v.6h-3.9v-6.3h.9v5.7h3ZM141.9,182.5c-.1,0-.3-.1-.4-.2s-.2-.2-.2-.4.1-.3.2-.4.2-.2.4-.2.3.1.4.2.2.2.2.4-.1.3-.2.4c-.2.2-.3.2-.4.2ZM141.5,184.1h.8v5h-.8v-5ZM146.3,183.9c.4,0,.8.1,1.1.3s.6.5.7.9c.2.4.3.8.3,1.4s-.1,1.1-.3,1.5-.5.7-.9.9-.8.3-1.2.3-.9-.1-1.3-.4v.2h-.6v-7.5h.8v2.8c.4-.2.9-.4,1.4-.4ZM145.9,188.6c.6,0,1-.2,1.2-.6.3-.4.4-.9.4-1.6s-.1-1.1-.4-1.4c-.2-.3-.6-.5-.9-.5s-.5,0-.7.1-.4.2-.6.4v3.2c.3.3.7.4,1,.4ZM151.1,189.2c-.4,0-.7,0-1-.1s-.5-.2-.8-.4l.2-.6c.4.3.9.5,1.5.5s.6-.1.8-.2c.2-.2.3-.4.3-.6s-.1-.3-.2-.4-.2-.2-.4-.3c-.1-.1-.4-.2-.6-.2-.3-.1-.6-.2-.8-.3s-.4-.2-.5-.4-.2-.4-.2-.7c0-.5.2-.8.5-1.1.3-.2.8-.4,1.3-.4s1.1.2,1.6.5l-.2.6c-.4-.3-.8-.4-1.3-.4s-.5.1-.7.2c-.2.1-.2.3-.2.5s.1.4.3.5.5.3.8.4c.3.1.6.2.8.3s.4.3.5.5.2.4.2.7c0,.5-.2.8-.5,1.1-.4.2-.9.3-1.4.3Z"/>
    </g>
    <path class="st8" d="M194.1,128.2h63.1v35.7h-63.1v-35.7Z"/>
    <path d="M217.6,147.5h-2.6l-.7,2h-.9l2.5-6.4h.8l2.5,6.4h-.9l-.7-2ZM217.3,146.9l-1-2.8-1,2.8h2ZM222.5,144.4c.4,0,.8.1,1.1.3s.6.5.7.9c.2.4.3.8.3,1.4,0,.9-.2,1.6-.7,2s-1.1.7-1.8.7-.6-.1-.9-.2v2.2h-.8v-7.2h.6v.4c.4-.3.9-.5,1.5-.5ZM222,149c.6,0,1-.2,1.3-.6.3-.4.4-.9.4-1.6s-.1-1.1-.4-1.4c-.2-.3-.6-.5-.9-.5s-.5,0-.7.1-.4.2-.6.4v3.3c.2.3.5.3.9.3ZM228.1,144.4c.4,0,.8.1,1.1.3s.6.5.7.9c.2.4.3.8.3,1.4,0,.9-.2,1.6-.7,2s-1.1.7-1.8.7-.6-.1-.9-.2v2.2h-.8v-7.2h.6v.4c.4-.3.9-.5,1.5-.5ZM227.6,149c.6,0,1-.2,1.3-.6.3-.4.4-.9.4-1.6s-.1-1.1-.4-1.4c-.2-.3-.6-.5-.9-.5s-.5,0-.7.1-.4.2-.6.4v3.3c.3.3.6.3.9.3ZM236.1,146.1c.4.1.8.3,1,.5s.4.6.4,1-.1.7-.3,1-.5.5-.8.7c-.4.2-.8.3-1.2.3s-.8-.1-1.2-.2c-.3-.1-.6-.3-.9-.6l.3-.5c.3.2.5.4.8.5s.6.1,1,.1.8-.1,1.1-.4c.3-.2.4-.6.4-1s-.1-.6-.4-.8c-.2-.2-.6-.3-1-.3s-.6.1-1,.2v-.6c.4-.1.8-.2,1-.3.3-.1.5-.3.7-.4.2-.2.2-.4.2-.7s-.1-.5-.3-.6c-.2-.2-.4-.2-.7-.2s-.6.1-.9.2c-.3.1-.6.3-.9.6l-.3-.5c.3-.3.6-.6.9-.7.4-.2.7-.2,1.1-.2s1,.1,1.3.4c.3.3.5.6.5,1.1.3.5,0,1-.8,1.4Z"/>
    <path class="st8" d="M194.1,168.2h63.1v36.5h-63.1v-36.5Z"/>
    <path d="M209.6,186.6c.4.1.8.3,1,.6s.4.6.4,1-.2,1-.6,1.3c-.4.3-1,.5-1.7.5h-2.1v-6.3h2.1c.7,0,1.2.1,1.5.4s.5.7.5,1.2-.1.6-.3.9c-.2.1-.5.3-.8.4ZM207.4,184.2v2h1.3c.4,0,.7-.1.9-.3s.3-.4.3-.8-.1-.6-.3-.8-.5-.3-.9-.3h-1.3v.2ZM208.7,189.3c.5,0,.8-.1,1.1-.3.2-.2.4-.5.4-.9s-.1-.7-.4-.9c-.2-.2-.6-.3-1.1-.3h-1.3v2.4h1.3ZM212.7,183.4c-.1,0-.3-.1-.4-.2s-.2-.2-.2-.4.1-.3.2-.4.2-.2.4-.2.3.1.4.2.2.2.2.4-.1.3-.2.4c0,.2-.2.2-.4.2ZM212.3,185h.8v5h-.8v-5ZM217.5,184.8c.6,0,.9.1,1.1.4.2.3.3.7.3,1.2v3.5h-.8v-3.4c0-.4-.1-.7-.2-.8s-.3-.2-.6-.2-.5.1-.7.2c-.2.1-.5.3-.8.5v3.8h-.8v-5h.6v.5c.8-.5,1.3-.7,1.9-.7ZM222,190.1c-.4,0-.7,0-1-.1s-.5-.2-.8-.4l.2-.6c.4.3.9.5,1.5.5s.6-.1.8-.2c.2-.2.3-.4.3-.6s-.1-.3-.2-.4-.2-.2-.4-.3c-.1-.1-.4-.2-.6-.2-.3-.1-.6-.2-.8-.3s-.4-.2-.5-.4-.2-.4-.2-.7c0-.5.2-.8.5-1.1.3-.2.8-.4,1.3-.4s1.1.2,1.6.5l-.2.6c-.4-.3-.8-.4-1.3-.4s-.5.1-.7.2c-.2.1-.2.3-.2.5s.1.4.3.5.5.3.8.4c.3.1.6.2.8.3s.4.3.5.5.2.4.2.7c0,.5-.2.8-.5,1.1-.4.2-.8.3-1.4.3ZM226.9,183.3h.9l-2.7,8.8h-.8l2.6-8.8ZM232.6,189.3v.6h-3.9v-6.3h.9v5.7h3ZM234.3,183.4c-.1,0-.3-.1-.4-.2s-.2-.2-.2-.4.1-.3.2-.4.2-.2.4-.2.3.1.4.2.2.2.2.4-.1.3-.2.4c0,.2-.3.2-.4.2ZM233.9,185h.8v5h-.8v-5ZM238.8,184.8c.4,0,.8.1,1.1.3s.6.5.7.9c.2.4.3.8.3,1.4s-.1,1.1-.3,1.5-.5.7-.9.9-.8.3-1.2.3-.9-.1-1.3-.4l-.2.3h-.5v-7.5h.8v2.8c.5-.4.9-.5,1.5-.5ZM238.4,189.5c.6,0,1-.2,1.2-.6.3-.4.4-.9.4-1.6s-.1-1.1-.4-1.4-.6-.5-.9-.5-.5,0-.7.1-.4.2-.6.4v3.2c.3.3.6.4,1,.4ZM243.5,190.1c-.4,0-.7,0-1-.1s-.5-.2-.8-.4l.2-.6c.4.3.9.5,1.5.5s.6-.1.8-.2c.2-.2.3-.4.3-.6s-.1-.3-.2-.4-.2-.2-.4-.3c-.1-.1-.4-.2-.6-.2-.3-.1-.6-.2-.8-.3s-.4-.2-.5-.4-.2-.4-.2-.7c0-.5.2-.8.5-1.1.3-.2.8-.4,1.3-.4s1.1.2,1.6.5l-.2.6c-.4-.3-.8-.4-1.3-.4s-.5.1-.7.2c-.2.1-.2.3-.2.5s.1.4.3.5.5.3.8.4c.3.1.6.2.8.3s.4.3.5.5.2.4.2.7c0,.5-.2.8-.5,1.1-.4.2-.8.3-1.4.3Z"/>
    <path class="st3" d="M34.1,207.9h130.2v49.7H34.1v-49.7Z"/>
    <path class="st9" d="M67.1,236.4c-.7,0-1.3-.2-1.8-.5s-.8-.7-1.1-1.2-.4-1.1-.4-1.7,0-1.1.4-1.6c.2-.5.6-.9,1.1-1.2s1.1-.5,1.8-.5.8.1,1.2.2.7.3.9.6l-.4.6c-.2-.2-.5-.4-.8-.5s-.6-.2-1-.2-1,.1-1.3.3-.6.5-.8.9c-.2.4-.3.8-.3,1.3s0,1,.3,1.4c.2.4.5.7.8,1,.4.2.8.3,1.3.3.8,0,1.4-.3,2-.9l.3.6c-.3.3-.6.5-1,.7-.3.3-.7.4-1.2.4ZM72.7,236.4c-.5,0-1-.1-1.3-.4-.4-.2-.6-.6-.8-1-.2-.4-.3-.9-.3-1.3s0-.9.3-1.3.4-.7.8-1c.4-.2.8-.4,1.3-.4s1,.1,1.3.4c.4.2.6.6.8,1,.2.4.3.8.3,1.3s0,.9-.3,1.3-.4.7-.8,1c-.3.3-.8.4-1.3.4ZM72.7,235.8c.5,0,.9-.2,1.1-.5.3-.4.4-.9.4-1.5s0-1.1-.4-1.5-.6-.5-1.1-.5-.9.2-1.2.5c-.3.4-.4.9-.4,1.5s0,1.1.4,1.5c.3.3.7.5,1.2.5ZM78.9,231.1c.6,0,.9.1,1.1.4.2.3.3.7.3,1.2v3.5h-.8v-3.4c0-.4,0-.7-.2-.8s-.3-.2-.6-.2-.5.1-.7.2c-.2.1-.5.3-.8.5v3.8h-.8v-5h.6v.5c.8-.5,1.4-.7,1.9-.7ZM84.9,236c-.3.2-.7.3-1,.3-.5,0-.9-.1-1.2-.4-.2-.3-.4-.7-.4-1.2v-2.8h-.8v-.3l.9-.2.2-1.2h.5v1.2h1.5v.6h-1.5v2.7c0,.4,0,.7.2.9s.3.3.6.3.3,0,.4-.1c0,0,.3-.1.4-.2l.2.4ZM90.2,236.2c-.2.1-.4.1-.7.1s-.5,0-.6-.1c-.2-.1-.3-.3-.3-.5-.6.4-1.1.7-1.6.7s-.7-.1-1-.3c-.2-.2-.4-.5-.4-.9s0-.6.2-.8c.2-.2.4-.4.7-.5s.7-.3,1.3-.4l.7-.2v-.4c0-.7-.3-1.1-.8-1.1s-.6.1-.9.2c-.3.1-.6.4-.9.7l-.3-.5c.7-.7,1.4-1,2.2-1s.9.1,1.2.4c.2.3.4.8.4,1.4v2.4c0,.1,0,.2,0,.3s0,.1.2.1.2,0,.4-.1v.5ZM86.5,235.1c0,.2,0,.4.2.5s.3.1.5.1.4-.1.7-.2c.2-.1.5-.3.8-.5v-1.3l-.5.2c-.6.2-1,.4-1.2.5-.4.2-.5.4-.5.7ZM91.7,229.7c0,0-.3-.1-.4-.2,0-.1-.2-.2-.2-.4s0-.3.2-.4c0-.1.2-.2.4-.2s.3.1.4.2c0,.1.2.2.2.4s0,.3-.2.4c0,.2-.2.2-.4.2ZM91.3,231.2h.8v5h-.8v-5ZM96.5,231.1c.6,0,.9.1,1.1.4.2.3.3.7.3,1.2v3.5h-.8v-3.4c0-.4,0-.7-.2-.8s-.3-.2-.6-.2-.5.1-.7.2c-.2.1-.5.3-.8.5v3.8h-.8v-5h.6v.5c.7-.5,1.3-.7,1.9-.7ZM101.6,235.8c.3,0,.6-.1.8-.2.2-.1.5-.3.7-.6l.3.5c-.2.3-.5.5-.8.7s-.7.2-1,.2c-.5,0-1-.1-1.3-.4-.4-.2-.6-.6-.8-1-.2-.4-.3-.9-.3-1.3s0-.9.3-1.3.4-.7.8-1c.4-.2.8-.4,1.3-.4s.7.1,1,.2c.3.1.5.4.7.6.2.3.2.6.2,1s0,.3,0,.5h-3.4v.2c0,.6,0,1.1.4,1.5.3.6.7.8,1.2.8ZM101.6,231.7c-.4,0-.7.1-.9.3-.2.2-.4.5-.5.9h2.5c0-.5,0-.7-.3-.9s-.5-.3-.8-.3ZM107.4,231.9c-.3,0-.6.1-.9.2-.3.1-.6.3-.9.6v3.6h-.8v-5h.6l.2.7c.3-.3.6-.5.9-.6s.6-.2.9-.2c0,0,0,.7,0,.7ZM114.9,235.6v.6h-3.9v-6.3h3.7v.6h-2.8v2h2.5v.6h-2.5v2.4h3ZM118.9,231.1c.6,0,.9.1,1.1.4.2.3.3.7.3,1.2v3.5h-.8v-3.4c0-.4,0-.7-.2-.8s-.3-.2-.6-.2-.5.1-.7.2c-.2.1-.5.3-.8.5v3.8h-.8v-5h.6v.5c.7-.5,1.3-.7,1.9-.7ZM126.3,231.9h-1.1c.2.2.3.5.3.8s0,.6-.2.8-.3.5-.6.6c-.3.1-.6.2-1,.2s-.4,0-.6-.1c-.2.1-.3.3-.4.4,0,.1,0,.2,0,.3s0,.2,0,.3.3.1.5.1h1.6c.5,0,.8.1,1.1.3s.4.5.4.9,0,.7-.4,1c-.2.3-.6.5-1,.7s-.9.2-1.4.2-1.2-.1-1.5-.4c-.3-.2-.5-.5-.5-.9s0-.5.2-.7.3-.4.6-.6c-.4-.1-.6-.4-.6-.8s0-.4.2-.5c0-.2.3-.4.6-.6-.2-.1-.4-.3-.5-.6,0-.2-.2-.5-.2-.8s0-.6.2-.8.3-.4.6-.6c.3-.2.6-.2,1-.2s.6.1.9.2h1.8v.8ZM123.6,233.8c.3,0,.6-.1.7-.3.2-.2.3-.4.3-.8s0-.6-.3-.8c-.2-.2-.4-.3-.7-.3s-.6.1-.8.3c-.2.2-.3.4-.3.8s0,.6.3.8c.3.2.5.3.8.3ZM125.4,236.7c0-.4-.3-.6-.8-.6h-1.6c-.2.2-.4.4-.5.5,0,.2-.2.4-.2.6,0,.3,0,.4.3.5.2.1.5.2.8.2s.7-.1,1-.2c.3-.1.5-.3.7-.5.2,0,.3-.3.3-.5ZM127.7,229.7c0,0-.3-.1-.4-.2,0-.1-.2-.2-.2-.4s0-.3.2-.4c0-.1.2-.2.4-.2s.3.1.4.2.2.2.2.4-.1.3-.2.4c0,.2-.3.2-.4.2ZM127.3,231.2h.8v5h-.8v-5ZM132.5,231.1c.6,0,.9.1,1.1.4s.3.7.3,1.2v3.5h-.8v-3.4c0-.4-.1-.7-.2-.8s-.3-.2-.6-.2-.5.1-.7.2c-.2.1-.5.3-.8.5v3.8h-.8v-5h.6v.5c.7-.5,1.3-.7,1.9-.7ZM137.6,235.8c.3,0,.6-.1.8-.2.2-.1.5-.3.7-.6l.3.5c-.2.3-.5.5-.8.7s-.7.2-1,.2c-.5,0-1-.1-1.3-.4-.4-.2-.6-.6-.8-1s-.3-.9-.3-1.3.1-.9.3-1.3c.2-.4.4-.7.8-1,.4-.2.8-.4,1.3-.4s.7.1,1,.2c.3.1.5.4.7.6.2.3.2.6.2,1s0,.3-.1.5h-3.4v.2c0,.6.1,1.1.4,1.5.3.6.7.8,1.2.8ZM137.5,231.7c-.4,0-.7.1-.9.3s-.4.5-.5.9h2.5c0-.5-.1-.7-.3-.9s-.5-.3-.8-.3Z"/>
    <path class="st2" d="M34.1,264.1h130.4v49.7H34.1v-49.7Z"/>
    <path class="st9" d="M87.1,289.4v2.6c-.2.1-.6.3-1,.4s-.8.1-1.3.1-1.3-.2-1.8-.5-.8-.7-1.1-1.2c-.2-.5-.4-1.1-.4-1.7s0-1.1.4-1.6.6-.9,1.1-1.2c.5-.3,1.1-.5,1.8-.5s.8.1,1.2.2c.4.1.7.3.9.6l-.4.6c-.2-.2-.5-.4-.8-.5s-.6-.2-1-.2-1,.1-1.3.3c-.4.2-.6.5-.8.9-.2.4-.3.8-.3,1.3s0,1,.3,1.4c.2.4.5.7.8,1,.4.2.8.3,1.3.3s1-.1,1.4-.2v-2.3h1v.2ZM92.5,287.4v5h-.6v-.5c-.7.5-1.3.7-1.9.7s-.9-.1-1.1-.4-.3-.7-.3-1.2v-3.5h.8v3.4c0,.4,0,.7.2.8s.3.2.6.2.5-.1.7-.2.5-.3.8-.5v-3.8h.8ZM96.2,291.9c.3,0,.6-.1.8-.2.2-.1.5-.3.7-.6l.3.5c-.2.3-.5.5-.8.7s-.7.2-1,.2c-.5,0-1-.1-1.3-.4-.4-.2-.6-.6-.8-1-.2-.4-.3-.9-.3-1.3s0-.9.3-1.3c.2-.4.4-.7.8-1,.4-.2.8-.4,1.3-.4s.7.1,1,.2.5.4.7.6c.2.3.2.6.2,1s0,.3,0,.5h-3.4v.2c0,.6,0,1.1.4,1.5.4.6.7.8,1.2.8ZM96.2,287.9c-.4,0-.7.1-.9.3-.2.2-.4.5-.5.9h2.5c0-.5,0-.7-.3-.9s-.5-.3-.8-.3ZM100.8,292.6c-.4,0-.7,0-1-.1s-.5-.2-.8-.4l.2-.6c.4.3.9.5,1.5.5s.6-.1.8-.2c.2-.2.3-.4.3-.6s0-.3-.2-.4-.2-.2-.4-.3c0-.1-.4-.2-.6-.2-.3-.1-.6-.2-.8-.3-.2-.1-.4-.2-.5-.4,0-.2-.2-.4-.2-.7,0-.5.2-.8.5-1.1.3-.2.8-.4,1.3-.4s1.1.2,1.6.5l-.2.6c-.4-.3-.8-.4-1.3-.4s-.5.1-.7.2-.3.3-.2.5c0,.2,0,.4.3.5.2.1.5.3.8.4s.6.2.8.3c.2.1.4.3.5.5s.2.4.2.7c0,.5-.2.8-.5,1.1-.4,0-.8.3-1.4.3ZM106.8,292.2c-.3.2-.7.3-1,.3-.5,0-.9-.1-1.2-.4-.2-.3-.4-.7-.4-1.2v-2.9h-.8v-.3l.9-.2.2-1.2h.5v1.2h1.5v.6h-1.5v2.7c0,.4,0,.7.2.9,0,.2.3.3.6.3s.3,0,.4-.1c0,0,.3-.1.4-.2l.2.5ZM113.1,292.5c-.7,0-1.2-.1-1.7-.4s-.8-.7-1.1-1.2c-.2-.5-.4-1.1-.4-1.7s0-1.2.4-1.7c.2-.5.6-.9,1.1-1.2.5-.3,1-.5,1.7-.5s1.2.2,1.7.5.8.7,1,1.2.4,1.1.4,1.7,0,1.2-.4,1.7c-.2.5-.6.9-1,1.2-.5.3-1,.4-1.7.4ZM113.1,291.9c.5,0,.9-.1,1.2-.3.3-.2.6-.5.8-.9.2-.4.3-.9.3-1.4s0-1-.3-1.4c-.2-.4-.4-.7-.8-.9-.3-.2-.7-.3-1.2-.3s-.9.1-1.2.3c-.3.2-.6.5-.8.9-.2.4-.3.8-.3,1.4s0,1,.3,1.4c.2.4.4.7.8.9.3.2.7.3,1.2.3ZM119.4,292.5c-.5,0-.9-.1-1.2-.2-.3-.1-.7-.3-1-.5l.3-.6c.5.4,1.2.6,1.9.6s.8-.1,1-.3c.3-.2.4-.5.4-.8s0-.4-.2-.5-.3-.3-.5-.4-.5-.2-.8-.3c-.4-.1-.8-.3-1-.4s-.5-.3-.6-.5c-.2-.2-.3-.5-.3-.9,0-.6.2-1,.6-1.3s.9-.5,1.5-.5,1.4.2,2,.6l-.3.6c-.5-.4-1-.5-1.6-.5s-.7.1-.9.3c-.2.2-.4.4-.4.8s0,.4.2.5.3.3.5.4.5.2.8.3c.4.1.8.3,1,.4.3.1.5.3.7.5s.3.5.3.9,0,.7-.3,1c-.2.3-.5.5-.8.7-.4,0-.8,0-1.3,0Z"/>
    <path class="st3" d="M194.1,207.9h63.1v49.7h-63.1v-49.7Z"/>
    <path class="st9" d="M209.6,230.8c-.6,0-1.1-.1-1.5-.4-.4-.3-.7-.6-.9-1s-.3-.9-.3-1.4.1-1,.3-1.4.5-.8,1-1c.4-.3.9-.4,1.5-.4s.7.1,1,.2c.3.1.6.3.8.5l-.3.5c-.2-.2-.4-.3-.7-.4-.3-.1-.5-.2-.8-.2s-.8.1-1.1.3-.6.5-.7.8c-.2.3-.2.7-.2,1.2s.1.8.2,1.2c.2.3.4.6.7.8s.7.3,1.1.3c.7,0,1.2-.2,1.7-.8l.3.5c-.2.2-.5.4-.9.6-.4,0-.8,0-1.2,0ZM214.4,230.9c-.4,0-.8-.1-1.1-.3s-.5-.5-.7-.8c-.1-.3-.2-.7-.2-1.1s.1-.8.2-1.2c.2-.4.4-.6.7-.8s.7-.3,1.1-.3.8.1,1.1.3.5.5.7.8.2.7.2,1.1-.1.8-.2,1.1c-.1.3-.4.6-.7.8-.3.3-.7.4-1.1.4ZM214.4,230.3c.4,0,.8-.2,1-.5s.3-.7.3-1.3-.1-.9-.3-1.2-.6-.5-1-.5-.8.2-1,.5-.3.7-.3,1.2.1,1,.3,1.3c.2.4.6.5,1,.5ZM219.7,226.3c.5,0,.8.1,1,.4.2.2.3.6.3,1.1v3h-.7v-2.9c0-.3-.1-.6-.2-.7s-.3-.2-.5-.2-.4,0-.6.1c-.2.1-.4.2-.7.4v3.3h-.7v-4.3h.5v.4c.6-.4,1.1-.6,1.6-.6ZM224.8,230.6c-.3.2-.6.3-.9.3-.5,0-.8-.1-1-.4s-.3-.6-.3-1.1v-2.4h-.7v-.3l.7-.2.2-1h.4v1h1.3v.5h-1.3v2.3c0,.4.1.6.2.8.1.2.3.2.6.2s.2,0,.3-.1c.1,0,.2-.1.4-.1v.5ZM229.4,230.7c-.2.1-.4.1-.6.1s-.4,0-.5-.1-.2-.2-.2-.5c-.5.4-1,.6-1.4.6s-.6-.1-.8-.3-.3-.4-.3-.7.1-.5.2-.7c.1-.2.4-.3.6-.5.3-.1.6-.2,1.1-.4l.6-.2v-.3c0-.6-.2-1-.7-1s-.5.1-.7.2c-.2.1-.5.3-.8.6l-.3-.4c.6-.6,1.2-.9,1.9-.9s.8.1,1,.4c.2.2.3.6.3,1.2v2.1c0,.1,0,.2.1.2q.1.1.2.1c.1,0,.2,0,.3-.1v.6ZM226.2,229.7c0,.2.1.3.2.4s.3.1.4.1c.2,0,.4,0,.5-.1.2-.1.4-.2.7-.4v-1.1h-.5c-.5.3-.9.4-1.1.6,0,.1-.2.3-.2.5ZM230.7,225.1c-.1,0-.2,0-.3-.1s-.1-.2-.1-.3,0-.2.1-.3.2-.1.3-.1.2,0,.3.1.1.2.1.3,0,.2-.1.3-.2.1-.3.1ZM230.3,226.5h.7v4.3h-.7v-4.3ZM234.8,226.3c.5,0,.8.1,1,.4.2.2.3.6.3,1.1v3h-.7v-2.9c0-.3-.1-.6-.2-.7s-.3-.2-.5-.2-.4,0-.6.1c-.2.1-.4.2-.7.4v3.3h-.7v-4.3h.5v.4c.6-.4,1.1-.6,1.6-.6ZM239.2,230.3c.3,0,.5-.1.7-.2.2-.1.4-.3.6-.5l.3.5c-.2.2-.5.4-.7.6-.3.1-.6.2-.9.2s-.8-.1-1.1-.3-.5-.5-.7-.8c-.1-.3-.2-.7-.2-1.1s.1-.8.2-1.2c.2-.4.4-.6.7-.8s.7-.3,1.1-.3.6.1.8.2c.2.1.4.3.6.6.1.2.2.5.2.8s0,.3-.1.5h-2.9v.2c0,.5.1.9.3,1.3.3.2.6.3,1.1.3ZM239.1,226.8c-.3,0-.6.1-.8.3s-.3.4-.4.7h2.2c0-.4-.1-.6-.3-.8-.2-.1-.4-.2-.7-.2Z"/>
    <path class="st9" d="M244.6,226.4c-.3,0-.6.1-.9.2-.3.1-.6.3-.9.6v3.6h-.8v-5h.6l.2.7c.3-.3.6-.5.9-.6s.6-.2.9-.2v.7h0Z"/>
    <path class="st9" d="M215.6,241.1v.6h-3.9v-6.3h3.7v.6h-2.8v2h2.5v.6h-2.5v2.4h3ZM219.6,236.6c.6,0,.9.1,1.1.4.2.3.3.7.3,1.2v3.5h-.8v-3.4c0-.4-.1-.7-.2-.8-.1-.2-.3-.2-.6-.2s-.5.1-.7.2c-.2.1-.5.3-.8.5v3.8h-.9v-5h.6v.5c.8-.5,1.4-.7,2-.7ZM227,237.4h-1.1c.2.2.3.5.3.8s-.1.6-.2.8c-.1.2-.3.5-.6.6s-.6.2-1,.2-.4,0-.6-.1c-.2.1-.3.3-.4.4s-.1.2-.1.3,0,.2.1.3.3.1.5.1h1.6c.5,0,.8.1,1.1.3s.4.5.4.9-.1.7-.4,1c-.2.3-.6.5-1,.7s-.9.2-1.4.2-1.2-.1-1.5-.4c-.3-.2-.5-.5-.5-.9s.1-.5.2-.7c.1-.2.3-.4.6-.6-.4-.1-.6-.4-.6-.8s.1-.4.2-.5c.1-.2.3-.4.6-.6-.2-.1-.4-.3-.5-.6-.1-.2-.2-.5-.2-.8s.1-.6.2-.8c.1-.2.3-.4.6-.6.3-.2.6-.2,1-.2s.6.1.9.2h1.8v.8h0ZM224.3,239.2c.3,0,.6-.1.7-.3.2-.2.3-.4.3-.8s-.1-.6-.3-.8-.4-.3-.7-.3-.6.1-.8.3-.3.4-.3.8.1.6.3.8c.3.3.5.3.8.3ZM226.1,242.2c0-.4-.3-.6-.8-.6h-1.6l-.5.5c-.1.2-.2.4-.2.6,0,.3.1.4.3.5s.5.2.8.2.7-.1,1-.2c.3-.1.5-.3.7-.5.2,0,.3-.3.3-.5ZM228.4,235.2c-.1,0-.3-.1-.4-.2s-.2-.2-.2-.4.1-.3.2-.4.2-.2.4-.2.3.1.4.2.2.2.2.4-.1.3-.2.4c0,.1-.3.2-.4.2ZM228,236.7h.8v5h-.8v-5ZM233.2,236.6c.6,0,.9.1,1.1.4.2.3.3.7.3,1.2v3.5h-.8v-3.4c0-.4-.1-.7-.2-.8-.1-.2-.3-.2-.6-.2s-.5.1-.7.2c-.2.1-.5.3-.8.5v3.8h-.8v-5h.6v.5c.7-.5,1.3-.7,1.9-.7ZM238.3,241.2c.3,0,.6-.1.8-.2.2-.1.5-.3.7-.6l.3.5c-.2.3-.5.5-.8.7s-.7.2-1,.2c-.5,0-1-.1-1.3-.4-.4-.2-.6-.6-.8-1s-.3-.9-.3-1.3.1-.9.3-1.3c.2-.4.4-.7.8-1,.4-.2.8-.4,1.3-.4s.7.1,1,.2c.3.1.5.4.7.6.2.3.2.6.2,1s0,.3-.1.5h-3.4v.2c0,.6.1,1.1.4,1.5.3.7.7.8,1.2.8ZM238.2,237.2c-.4,0-.7.1-.9.3s-.4.5-.5.9h2.5c0-.5-.1-.7-.3-.9s-.5-.3-.8-.3Z"/>
    <path class="st2" d="M194.1,264.1h63.1v49.7h-63.1v-49.7Z"/>
    <path class="st9" d="M211.1,289.4v2.6c-.2.1-.6.3-1,.4s-.8.1-1.3.1-1.3-.2-1.8-.5-.8-.7-1.1-1.2c-.2-.5-.4-1.1-.4-1.7s.1-1.1.4-1.6c.2-.5.6-.9,1.1-1.2.5-.3,1.1-.5,1.8-.5s.8.1,1.2.2.7.3.9.6l-.4.6c-.2-.2-.5-.4-.8-.5s-.6-.2-1-.2-1,.1-1.3.3c-.4.2-.6.5-.8.9s-.3.8-.3,1.3.1,1,.3,1.4.5.7.8,1c.4.2.8.3,1.3.3s1-.1,1.4-.2v-2.3h1v.2ZM216.5,287.4v5h-.6v-.5c-.7.5-1.3.7-1.9.7s-.9-.1-1.1-.4c-.2-.3-.3-.7-.3-1.2v-3.5h.8v3.4c0,.4.1.7.2.8.1.2.3.2.6.2s.5-.1.7-.2.5-.3.8-.5v-3.8h.8ZM220.2,291.9c.3,0,.6-.1.8-.2s.5-.3.7-.6l.3.5c-.2.3-.5.5-.8.7s-.7.2-1,.2c-.5,0-1-.1-1.3-.4-.4-.2-.6-.6-.8-1s-.3-.9-.3-1.3.1-.9.3-1.3.4-.7.8-1c.4-.2.8-.4,1.3-.4s.7.1,1,.2.5.4.7.6c.2.3.2.6.2,1s0,.3-.1.5h-3.4v.2c0,.6.1,1.1.4,1.5.4.6.7.8,1.2.8ZM220.2,287.8c-.4,0-.7.1-.9.3-.2.2-.4.5-.5.9h2.5c0-.4-.1-.6-.3-.8s-.5-.4-.8-.4ZM224.8,292.5c-.4,0-.7,0-1-.1s-.5-.2-.8-.4l.2-.6c.4.3.9.5,1.5.5s.6-.1.8-.2c.2-.2.3-.4.3-.6s-.1-.3-.2-.4c-.1-.1-.2-.2-.4-.3-.1-.1-.4-.2-.6-.2-.3-.1-.6-.2-.8-.3-.2-.1-.4-.2-.5-.4-.1-.2-.2-.4-.2-.7,0-.5.2-.8.5-1.1.3-.2.8-.4,1.3-.4s1.1.2,1.6.5l-.2.6c-.4-.3-.8-.4-1.3-.4s-.5.1-.7.2-.2.3-.2.5.1.4.3.5.5.3.8.4.6.2.8.3c.2.1.4.3.5.5s.2.4.2.7c0,.5-.2.8-.5,1.1-.4.2-.8.3-1.4.3ZM230.8,292.2c-.3.2-.7.3-1,.3-.5,0-.9-.1-1.2-.4-.2-.3-.4-.7-.4-1.2v-2.9h-.8v-.3l.9-.2.2-1.2h.5v1.2h1.5v.6h-1.5v2.7c0,.4.1.7.2.9s.3.3.6.3.3,0,.4-.1c.1,0,.3-.1.4-.2l.2.5ZM237.1,292.5c-.7,0-1.2-.1-1.7-.4s-.8-.7-1.1-1.2c-.2-.5-.4-1.1-.4-1.7s.1-1.2.4-1.7c.2-.5.6-.9,1.1-1.2.5-.3,1-.5,1.7-.5s1.2.2,1.7.5.8.7,1,1.2.4,1.1.4,1.7-.1,1.2-.4,1.7c-.2.5-.6.9-1,1.2-.5.3-1,.4-1.7.4ZM237.1,291.9c.5,0,.9-.1,1.2-.3.3-.2.6-.5.8-.9s.3-.9.3-1.4-.1-1-.3-1.4-.4-.7-.8-.9c-.3-.2-.7-.3-1.2-.3s-.9.1-1.2.3c-.3.2-.6.5-.8.9s-.3.8-.3,1.4.1,1,.3,1.4.4.7.8.9c.3.1.7.3,1.2.3ZM243.4,292.5c-.5,0-.9-.1-1.2-.2s-.7-.3-1-.5l.3-.6c.5.4,1.2.6,1.9.6s.8-.1,1-.3c.3-.2.4-.5.4-.8s-.1-.4-.2-.5c-.1-.1-.3-.3-.5-.4s-.5-.2-.8-.3c-.4-.1-.8-.3-1-.4s-.5-.3-.6-.5c-.2-.2-.3-.5-.3-.9,0-.6.2-1,.6-1.3.4-.3.9-.5,1.5-.5s1.4.2,2,.6l-.3.6c-.5-.4-1-.5-1.6-.5s-.7.1-.9.3c-.2.2-.4.4-.4.8s.1.4.2.5c.1.1.3.3.5.4s.5.2.8.3c.4.1.8.3,1,.4.3.1.5.3.7.5s.3.5.3.9-.1.7-.3,1-.5.5-.8.7c-.4,0-.8,0-1.3,0Z"/>
    <path class="st10" d="M138.6,78.1l-6.3,16.5h-3.3l-6.3-16.5h3.3l4.6,13.3,4.6-13.3h3.4ZM158.2,78.1v16.3h-3.2v-5l.2-6.3-4.2,6.7h-2.4l-4.2-6.8.2,6.4v5h-3.2v-16.3h3l5.3,8.4,5.4-8.4h3.1ZM166.4,94.8c-1.8,0-3.4-.4-4.7-1.1l.7-2.2c1.3.6,2.6.9,3.9.9s1.4,0,1.9-.4.7-.7.7-1.2-.2-.8-.7-1.1c-.4-.3-1.1-.6-2.1-.9-.9-.3-1.6-.6-2.1-.9-.6-.3-1-.7-1.4-1.1-.4-.5-.6-1.1-.6-1.8,0-1.3.5-2.3,1.4-3,1-.7,2.3-1,3.9-1s1.5,0,2.2.2c.7.2,1.4.4,1.9.7l-.7,2.2c-1.1-.6-2.2-.9-3.4-.9s-1.3,0-1.7.3c-.4.2-.6.6-.6,1.1s.2.8.6,1.1c.4.2,1.1.5,2,.9.9.3,1.6.6,2.2.9.6.3,1,.7,1.4,1.2s.6,1.2.6,2c0,1.3-.5,2.3-1.5,3.1-.7.6-2.1,1-3.9,1Z"/>
    <path class="st10" d="M352.2,94.8c-1.9,0-3.5-.4-4.8-1.2-1.3-.8-2.3-1.8-2.9-3.1-.6-1.3-1-2.7-1-4.2s.3-2.9,1-4.2c.7-1.3,1.7-2.3,3-3.1,1.3-.8,3-1.2,4.9-1.2s2,0,2.8.4c.9.3,1.7.6,2.3,1.1l-.9,2.2c-.6-.4-1.2-.7-1.9-1-.7-.3-1.5-.4-2.4-.4s-2.2.3-3.1.8-1.5,1.2-1.9,2.2c-.4.9-.7,1.9-.7,3.1s.2,2.2.6,3.1,1,1.6,1.8,2.2c.8.5,1.8.8,3,.8s1.8-.2,2.6-.5c.8-.3,1.5-.7,2.1-1.2l.8,2.2c-.7.5-1.5,1-2.5,1.3-.7.5-1.7.7-2.8.7ZM368.4,94.8c-1.8,0-3.3-.4-4.6-1.1-1.3-.8-2.2-1.8-2.9-3.1-.6-1.3-1-2.7-1-4.3s.3-3,1-4.3c.6-1.3,1.6-2.3,2.9-3.1,1.3-.8,2.8-1.1,4.6-1.1s3.3.4,4.6,1.1c1.3.8,2.2,1.8,2.9,3.1.6,1.3,1,2.7,1,4.2s-.3,3-1,4.3c-.6,1.3-1.6,2.3-2.9,3.1-1.2.8-2.8,1.2-4.6,1.2ZM368.5,92.4c1.1,0,2-.3,2.8-.8s1.4-1.3,1.8-2.2c.4-.9.6-2,.6-3.1s-.2-2.2-.6-3.1-1-1.6-1.8-2.2c-.8-.5-1.7-.8-2.8-.8s-2,.3-2.8.8-1.4,1.2-1.8,2.2c-.4.9-.6,1.9-.6,3.1s.2,2.2.6,3.1,1,1.6,1.8,2.2c.7.5,1.7.8,2.8.8ZM394.8,78.1v16.3h-2.9l-8.4-11.4.2,5.5v6h-3.3v-16.4h2.9l8.4,11.5-.2-5.8v-5.7h3.3ZM411,80.5h-5v14h-3.3v-14h-5v-2.3h13.3v2.3ZM422.9,90h-6l-1.5,4.4h-3.4l6.3-16.5h3.1l6.3,16.5h-3.3l-1.5-4.4ZM422,87.7l-2.2-6.4-2.2,6.4h4.4ZM430.4,78.1h3.3v16.3h-3.3v-16.3ZM452.8,78.1v16.3h-2.9l-8.4-11.4.2,5.5v6h-3.3v-16.4h2.9l8.4,11.5-.2-5.8v-5.7h3.3ZM468.1,92.1v2.3h-10.5v-16.3h10.1v2.3h-6.8v4.2h5.8v2.4h-5.8v5.1h7.2ZM477.8,87.9h-2.7v6.6h-3.3v-16.4h6c4.1,0,6.2,1.6,6.2,4.7s-1,3.8-3,4.4l4.9,7.2h-3.8l-4.3-6.5ZM475.1,85.5h2.7c1,0,1.8-.2,2.2-.6.5-.4.7-1.1.7-1.9,0-1.7-1-2.5-2.9-2.5h-2.7v5h0ZM493.3,94.8c-2.3,0-4.2-.5-5.6-1.4l.8-2.3c.8.4,1.6.7,2.4.9.8.2,1.6.3,2.5.3s1.8-.2,2.4-.6c.7-.4,1-1,1-1.7s-.2-.9-.5-1.2c-.3-.3-.7-.6-1.2-.8-.5-.2-1.1-.5-1.9-.8-1.1-.4-1.9-.7-2.6-1.1-.6-.3-1.2-.8-1.7-1.4s-.7-1.3-.7-2.2c0-1.5.6-2.7,1.7-3.5s2.6-1.3,4.5-1.3,3.5.4,4.9,1.3l-.8,2.2c-1.3-.8-2.7-1.1-4-1.1s-1.6.2-2.2.6-.9.9-.9,1.6.1.8.4,1.1c.3.3.7.6,1.1.8.4.2,1.1.4,1.9.8,1.1.4,2,.8,2.6,1.1.7.3,1.3.8,1.7,1.4.5.6.7,1.4.7,2.3,0,1.5-.6,2.7-1.8,3.6-1.1,1-2.7,1.4-4.7,1.4Z"/>
    <path class="st6" d="M313.4,134.5c-.7,0-1.3-.2-1.8-.5s-.8-.7-1.1-1.2c-.2-.5-.4-1.1-.4-1.7s.1-1.1.4-1.6c.2-.5.6-.9,1.1-1.2s1.1-.5,1.8-.5.8,0,1.2.2c.4.1.7.3.9.6l-.4.6c-.2-.2-.5-.4-.8-.5s-.6-.2-1-.2-1,.1-1.3.3c-.4.2-.6.5-.8.9-.2.4-.3.8-.3,1.3s.1,1,.3,1.4c.2.4.5.7.8,1,.4.2.8.3,1.3.3.8,0,1.4-.3,2-.9l.3.6c-.3.3-.6.5-1,.7-.3.3-.7.4-1.2.4ZM319,134.6c-.5,0-1-.1-1.3-.4-.4-.2-.6-.6-.8-1-.2-.4-.3-.9-.3-1.3s.1-.9.3-1.3c.2-.4.4-.7.8-1,.4-.2.8-.4,1.3-.4s1,.1,1.3.4c.4.2.6.6.8,1,.2.4.3.8.3,1.3s-.1.9-.3,1.3c-.2.4-.4.7-.8,1-.4.2-.8.4-1.3.4ZM319,133.9c.5,0,.9-.2,1.1-.5.3-.4.4-.9.4-1.5s-.1-1.1-.4-1.5-.6-.5-1.1-.5-.9.2-1.2.5c-.3.4-.4.9-.4,1.5s.1,1.1.4,1.5c.3.3.7.5,1.2.5ZM325.2,129.2c.6,0,.9.1,1.1.4.2.3.3.7.3,1.2v3.5h-.8v-3.3c0-.4-.1-.7-.2-.8-.1-.2-.3-.2-.6-.2s-.5.1-.7.2c-.2.1-.5.3-.8.5v3.8h-.8v-5h.6v.5c.8-.5,1.3-.8,1.9-.8ZM331.2,134.2c-.3.2-.7.3-1,.3-.5,0-.9-.1-1.2-.4-.2-.3-.4-.7-.4-1.2v-2.9h-.8v-.3l.9-.2.2-1.2h.5v1.2h1.5v.6h-1.5v2.7c0,.4.1.7.2.9s.3.3.6.3.3,0,.4-.1c.1,0,.3-.1.4-.2l.2.5ZM336.5,134.4c-.2.1-.4.1-.7.1s-.5,0-.6-.1c-.2-.1-.3-.3-.3-.5-.6.4-1.1.7-1.6.7s-.7-.1-1-.3c-.2-.2-.4-.5-.4-.9s.1-.6.2-.8c.2-.2.4-.4.7-.5.3-.1.7-.3,1.3-.4l.7-.2v-.5c0-.7-.3-1.1-.8-1.1s-.6.1-.9.2c-.3.1-.6.4-.9.7l-.3-.5c.7-.7,1.4-1,2.2-1s.9.1,1.2.4c.2.3.4.8.4,1.4v2.4c0,.1,0,.2.1.3s.1.1.2.1.2,0,.4-.1v.6ZM332.8,133.3c0,.2.1.4.2.5s.3.1.5.1.4-.1.7-.2c.2-.1.5-.3.8-.5v-1.3l-.5.2c-.6.2-1,.4-1.2.5-.4.2-.5.4-.5.7ZM338,127.9c-.1,0-.3,0-.4-.2s-.2-.2-.2-.4.1-.3.2-.4.2-.2.4-.2.3,0,.4.2.2.2.2.4-.1.3-.2.4-.3.2-.4.2ZM337.6,129.4h.8v5h-.8v-5ZM342.7,129.2c.6,0,.9.1,1.1.4.2.3.3.7.3,1.2v3.5h-.8v-3.3c0-.4-.1-.7-.2-.8-.1-.2-.3-.2-.6-.2s-.5.1-.7.2c-.2.1-.5.3-.8.5v3.8h-.8v-5h.6v.5c.8-.5,1.4-.8,1.9-.8ZM347.9,133.9c.3,0,.6-.1.8-.2s.5-.3.7-.6l.3.5c-.2.3-.5.5-.8.7s-.7.2-1,.2c-.5,0-1-.1-1.3-.4-.4-.2-.6-.6-.8-1-.2-.4-.3-.9-.3-1.3s.1-.9.3-1.3c.2-.4.4-.7.8-1,.4-.2.8-.4,1.3-.4s.7.1,1,.2c.3.1.5.4.7.6.2.3.2.6.2,1s0,.3-.1.5h-3.4v.2c0,.6.1,1.1.4,1.5.3.6.7.8,1.2.8ZM347.8,129.8c-.4,0-.7.1-.9.3-.2.2-.4.5-.5.9h2.5c0-.4-.1-.6-.3-.8s-.5-.4-.8-.4ZM353.7,130c-.3,0-.6.1-.9.2-.3.1-.6.3-.9.6v3.6h-.8v-5h.6l.2.7c.3-.3.6-.5.9-.6s.6-.2.9-.2v.7h0ZM360.9,133.7v.6h-3.6v-.6h1.4v-4.8l-1.2.7-.3-.6,1.6-1h.7v5.7h1.4Z"/>
    <path class="st6" d="M470.8,135c-.7,0-1.3-.2-1.8-.5s-.8-.7-1.1-1.2c-.2-.5-.4-1.1-.4-1.7s.1-1.1.4-1.6c.2-.5.6-.9,1.1-1.2s1.1-.5,1.8-.5.8.1,1.2.2c.4.1.7.3.9.6l-.4.6c-.2-.2-.5-.4-.8-.5s-.6-.2-1-.2-1,.1-1.3.3c-.4.2-.6.5-.8.9-.2.4-.3.8-.3,1.3s.1,1,.3,1.4c.2.4.5.7.8,1,.4.2.8.3,1.3.3.8,0,1.4-.3,2-.9l.3.6c-.3.3-.6.5-1,.7-.3.3-.8.4-1.2.4ZM476.3,135c-.5,0-1-.1-1.3-.4-.4-.2-.6-.6-.8-1-.2-.4-.3-.9-.3-1.3s.1-.9.3-1.3c.2-.4.4-.7.8-1,.4-.2.8-.4,1.3-.4s1,.1,1.3.4c.4.2.6.6.8,1,.2.4.3.8.3,1.3s-.1.9-.3,1.3c-.2.4-.4.7-.8,1-.3.3-.8.4-1.3.4ZM476.3,134.4c.5,0,.9-.2,1.1-.5.3-.4.4-.9.4-1.5s-.1-1.1-.4-1.5-.6-.5-1.1-.5-.9.2-1.2.5c-.3.4-.4.9-.4,1.5s.1,1.1.4,1.5c.3.3.7.5,1.2.5ZM482.5,129.7c.6,0,.9.1,1.1.4.2.3.3.7.3,1.2v3.5h-.8v-3.4c0-.4-.1-.7-.2-.8-.1-.2-.3-.2-.6-.2s-.5.1-.7.2c-.2.1-.5.3-.8.5v3.8h-.8v-5h.6v.5c.8-.5,1.4-.7,1.9-.7ZM488.5,134.7c-.3.2-.7.3-1,.3-.5,0-.9-.1-1.2-.4-.2-.3-.4-.7-.4-1.2v-2.8h-.8v-.3l.9-.2.2-1.2h.5v1.2h1.5v.6h-1.5v2.7c0,.4.1.7.2.9s.3.3.6.3.3,0,.4-.1c.1,0,.3-.1.4-.2l.2.4ZM493.8,134.8c-.2.1-.4.1-.7.1s-.5,0-.6-.1c-.2-.1-.3-.3-.3-.5-.6.4-1.1.7-1.6.7s-.7-.1-1-.3c-.2-.2-.4-.5-.4-.9s.1-.6.2-.8c.2-.2.4-.4.7-.5.3-.1.7-.3,1.3-.4l.7-.2v-.4c0-.7-.3-1.1-.8-1.1s-.6.1-.9.2-.6.4-.9.7l-.3-.5c.7-.7,1.4-1,2.2-1s.9.1,1.2.4.4.8.4,1.4v2.4c0,.1,0,.2.1.3s.1.1.2.1.2,0,.4-.1v.5ZM490.1,133.7c0,.2.1.4.2.5s.3.1.5.1.4-.1.7-.2c.2-.1.5-.3.8-.5v-1.3l-.5.2c-.6.2-1,.4-1.2.5-.4.2-.5.5-.5.7ZM495.3,128.3c-.1,0-.3-.1-.4-.2-.1-.1-.2-.2-.2-.4s.1-.3.2-.4.2-.2.4-.2.3,0,.4.2.2.2.2.4-.1.3-.2.4c0,.2-.2.2-.4.2ZM494.9,129.9h.8v5h-.8v-5ZM500.1,129.7c.6,0,.9.1,1.1.4.2.3.3.7.3,1.2v3.5h-.8v-3.4c0-.4-.1-.7-.2-.8-.1-.2-.3-.2-.6-.2s-.5.1-.7.2c-.2.1-.5.3-.8.5v3.8h-.8v-5h.6v.5c.7-.5,1.3-.7,1.9-.7ZM505.2,134.4c.3,0,.6-.1.8-.2s.5-.3.7-.6l.3.5c-.2.3-.5.5-.8.7s-.7.2-1,.2c-.5,0-1-.1-1.3-.4-.4-.2-.6-.6-.8-1-.2-.4-.3-.9-.3-1.3s.1-.9.3-1.3c.2-.4.4-.7.8-1,.4-.2.8-.4,1.3-.4s.7.1,1,.2c.3.1.5.4.7.6.2.3.2.6.2,1s0,.3-.1.5h-3.4v.2c0,.6.1,1.1.4,1.5.3.6.7.8,1.2.8ZM505.2,130.3c-.4,0-.7.1-.9.3-.2.2-.4.5-.5.9h2.5c0-.5-.1-.7-.3-.9s-.5-.3-.8-.3ZM511,130.5c-.3,0-.6.1-.9.2-.3.1-.6.3-.9.6v3.6h-.8v-5h.6l.2.7c.3-.3.6-.5.9-.6s.6-.2.9-.2v.7h0ZM516.8,131.4c.4.1.8.3,1,.5s.4.6.4,1,0,.7-.3,1-.5.5-.8.7c-.4.2-.8.3-1.2.3s-.8-.1-1.2-.2c-.3-.1-.6-.3-.9-.6l.3-.5c.3.2.5.4.8.5s.6.1,1,.1.8-.1,1.1-.4c.3-.2.4-.6.4-1s0-.6-.4-.8c-.2-.2-.6-.3-1-.3s-.6.1-1,.2v-.6c.4-.1.8-.2,1-.3.3-.1.5-.3.7-.4.2-.2.2-.4.2-.7s0-.5-.3-.6c-.2-.2-.4-.2-.7-.2s-.6.1-.9.2c-.3.1-.6.3-.9.6l-.3-.5c.3-.3.6-.6.9-.7.4-.2.7-.2,1.1-.2s1,.1,1.3.4c.3.3.5.6.5,1.1.3.5,0,1.1-.8,1.4Z"/>
    <path class="st6" d="M392.1,134.5c-.7,0-1.3-.2-1.8-.5s-.8-.7-1.1-1.2c-.2-.5-.4-1.1-.4-1.7s.1-1.1.4-1.6c.2-.5.6-.9,1.1-1.2s1.1-.5,1.8-.5.8,0,1.2.2c.4.1.7.3.9.6l-.4.6c-.2-.2-.5-.4-.8-.5s-.6-.2-1-.2-1,.1-1.3.3c-.4.2-.6.5-.8.9-.2.4-.3.8-.3,1.3s.1,1,.3,1.4c.2.4.5.7.8,1,.4.2.8.3,1.3.3.8,0,1.4-.3,2-.9l.3.6c-.3.3-.6.5-1,.7-.3.3-.7.4-1.2.4ZM397.6,134.6c-.5,0-1-.1-1.3-.4-.4-.2-.6-.6-.8-1-.2-.4-.3-.9-.3-1.3s.1-.9.3-1.3c.2-.4.4-.7.8-1,.4-.2.8-.4,1.3-.4s1,.1,1.3.4c.4.2.6.6.8,1,.2.4.3.8.3,1.3s-.1.9-.3,1.3c-.2.4-.4.7-.8,1-.3.2-.7.4-1.3.4ZM397.6,133.9c.5,0,.9-.2,1.1-.5.3-.4.4-.9.4-1.5s-.1-1.1-.4-1.5-.6-.5-1.1-.5-.9.2-1.2.5c-.3.4-.4.9-.4,1.5s.1,1.1.4,1.5c.4.3.7.5,1.2.5ZM403.9,129.2c.6,0,.9.1,1.1.4.2.3.3.7.3,1.2v3.5h-.8v-3.3c0-.4-.1-.7-.2-.8-.1-.2-.3-.2-.6-.2s-.5.1-.7.2c-.2.1-.5.3-.8.5v3.8h-.8v-5h.6v.5c.7-.5,1.3-.8,1.9-.8ZM409.8,134.2c-.3.2-.7.3-1,.3-.5,0-.9-.1-1.2-.4-.2-.3-.4-.7-.4-1.2v-2.9h-.8v-.3l.9-.2.2-1.2h.5v1.2h1.5v.6h-1.5v2.7c0,.4.1.7.2.9s.3.3.6.3.3,0,.4-.1c.1,0,.3-.1.4-.2l.2.5ZM415.1,134.4c-.2.1-.4.1-.7.1s-.5,0-.6-.1c-.2-.1-.3-.3-.3-.5-.6.4-1.1.7-1.6.7s-.7-.1-1-.3c-.2-.2-.4-.5-.4-.9s.1-.6.2-.8c.2-.2.4-.4.7-.5.3-.1.7-.3,1.3-.4l.7-.2v-.5c0-.7-.3-1.1-.8-1.1s-.6.1-.9.2c-.3.1-.6.4-.9.7l-.3-.5c.7-.7,1.4-1,2.2-1s.9.1,1.2.4c.2.3.4.8.4,1.4v2.4c0,.1,0,.2.1.3s.1.1.2.1.2,0,.4-.1v.6ZM411.4,133.3c0,.2.1.4.2.5s.3.1.5.1.4-.1.7-.2c.2-.1.5-.3.8-.5v-1.3l-.5.2c-.6.2-1,.4-1.2.5-.4.2-.5.4-.5.7ZM416.7,127.9c-.1,0-.3,0-.4-.2s-.2-.2-.2-.4.1-.3.2-.4.2-.2.4-.2.3,0,.4.2.2.2.2.4-.1.3-.2.4c-.2,0-.3.2-.4.2ZM416.3,129.4h.8v5h-.8v-5ZM421.4,129.2c.6,0,.9.1,1.1.4.2.3.3.7.3,1.2v3.5h-.8v-3.3c0-.4-.1-.7-.2-.8-.1-.2-.3-.2-.6-.2s-.5.1-.7.2c-.2.1-.5.3-.8.5v3.8h-.8v-5h.6v.5c.8-.5,1.4-.8,1.9-.8ZM426.5,133.9c.3,0,.6-.1.8-.2s.5-.3.7-.6l.3.5c-.2.3-.5.5-.8.7s-.7.2-1,.2c-.5,0-1-.1-1.3-.4-.4-.2-.6-.6-.8-1-.2-.4-.3-.9-.3-1.3s.1-.9.3-1.3c.2-.4.4-.7.8-1,.4-.2.8-.4,1.3-.4s.7.1,1,.2c.3.1.5.4.7.6.2.3.2.6.2,1s0,.3-.1.5h-3.3v.2c0,.6.1,1.1.4,1.5.2.6.6.8,1.1.8ZM426.5,129.8c-.4,0-.7.1-.9.3-.2.2-.4.5-.5.9h2.5c0-.4-.1-.6-.3-.8s-.5-.4-.8-.4ZM432.4,130c-.3,0-.6.1-.9.2-.3.1-.6.3-.9.6v3.6h-.8v-5h.6l.2.7c.3-.3.6-.5.9-.6s.6-.2.9-.2v.7h0ZM435.4,133.9l1.6-1.5c.5-.5.9-1,1.2-1.4.2-.4.4-.8.4-1.1s-.1-.7-.3-.9c-.2-.2-.5-.3-.9-.3s-.6.1-.9.2c-.2.1-.5.3-.8.7l-.3-.5c.3-.3.6-.6.9-.8s.7-.2,1.1-.2c.6,0,1.1.2,1.5.5s.6.8.6,1.3-.1.9-.4,1.4-.7,1-1.4,1.6l-1,.9h3.1v.7h-4.3v-.6h-.1Z"/>
  </g>
  <rect class="st0" x="12.8" y="25" width="528.8" height="26.9"/>
  <g class="st7">
    <path class="st6" d="M17.1,39.7c0-5.9,4.2-11.2,12.4-11.2s4.9.6,6.5,1.4l-1.2,4c-1.2-.6-2.9-1.3-5.4-1.3-4.3,0-6.7,3.2-6.7,7.1s2.1,7.1,6.4,7.1,4.4-.8,5.7-1.3l1.1,3.9c-1.7.8-4.2,1.5-6.8,1.5-8.3,0-12.2-5.4-12.2-11.3Z"/>
    <path class="st6" d="M38.8,41.6c0-5.6,3.1-9.5,9.6-9.5s9.6,4.5,9.6,9.4-3.1,9.5-9.6,9.5-9.6-4.1-9.6-9.4ZM52.3,41.6c0-3.6-1.1-5.5-3.9-5.5s-3.9,1.9-3.9,5.5,1.1,5.5,3.9,5.5,3.9-1.9,3.9-5.5Z"/>
    <path class="st6" d="M72.5,32.1c5.1,0,6.3,3,6.3,7.3v11.2h-5.6v-10.5c0-2.9-.5-4-2.6-4s-2.3.4-3.3,1.1v13.4h-5.6v-18.2h4.1l.6,1.5c2.1-1.2,4-1.9,6-1.9h0Z"/>
    <path class="st6" d="M96,49.5c-1.3,1-3.3,1.4-4.9,1.4-4.6,0-6.7-2.1-6.7-5.8v-8.7h-2.7v-2.3l3.4-1.4,1.5-4.9h3.3v4.7h5.1v3.9h-5.1v7.4c0,2.4.8,3.1,2.3,3.1,1,0,2-.4,2.9-.8l.9,3.4Z"/>
    <path class="st6" d="M116.3,50.4c-1.2.3-2.1.4-3.5.4-1.9,0-3.4-.4-4.2-2-1.7,1.2-3.4,2-5.6,2s-5-2-5-4.5c0-4.3,3.4-5.2,9.2-6.9l1-.3h0c0-2.2-1-3.1-2.7-3.1s-3.6.7-6.3,2.4l-1.1-3.8c2.6-1.5,5.6-2.7,9.2-2.7s6.4,1.7,6.4,7.4v6.1c0,.9.4,1.3,1.2,1.3s.7,0,1.2-.2l.2,3.8ZM104.9,46.9c1,0,2-.4,3.2-1.2v-3.4l-.5.2c-3.2,1.2-4.1,1.9-4.1,3.2s.4,1.2,1.4,1.2Z"/>
    <path class="st6" d="M118.5,26.8c0-1.8,1.4-3.2,3.2-3.2s3.2,1.4,3.2,3.2-1.4,3.2-3.2,3.2-3.2-1.4-3.2-3.2ZM119,32.5h5.6v18.2h-5.6v-18.2Z"/>
    <path class="st6" d="M140.4,32.1c5.1,0,6.3,3,6.3,7.3v11.2h-5.6v-10.5c0-2.9-.5-4-2.6-4s-2.3.4-3.3,1.1v13.4h-5.6v-18.2h4.1l.6,1.5c2.1-1.2,4-1.9,6-1.9h0Z"/>
    <path class="st6" d="M159.9,47c2.1,0,3.8-.9,5.6-2.1l1.5,3.5c-2.2,1.8-4.3,2.6-7.2,2.6-6.6,0-9.5-4.2-9.5-9.4s3.1-9.5,9.5-9.5,7.6,2.8,7.6,7.7c0,.8-.1,1.9-.4,2.8h-11.2c.2,2.9,1.4,4.4,4.1,4.4ZM162.1,38.9v-.5c0-1.8-1-2.7-2.6-2.7s-3.1,1.3-3.5,3.2h6.1Z"/>
    <path class="st6" d="M183,37.5c-1.9,0-3.7.1-6,1v12.2h-5.6v-18.2h4.1l.8,2.1c2.3-1.9,4.4-2.5,6.6-2.5v5.4Z"/>
    <path class="st6" d="M185.2,49.8l1.1-3.8c2,.7,3.6,1,5.3,1s3.1-.4,3.1-1.5c0-2.5-9.2-2.1-9.2-7.4s3.2-6,8.2-6,4.1.4,5.7,1l-1.1,3.8c-1.5-.5-2.9-.9-4.4-.9s-2.8.4-2.8,1.3c0,2.6,9.2,1.6,9.2,7.7s-2.8,5.9-8.6,5.9-4.9-.5-6.5-1.2Z"/>
    <path class="st6" d="M229.2,32.5l-7,18.3h-5.5l-7-18.3h5.7l4.1,12.8,4.1-12.8h5.6Z"/>
    <path class="st6" d="M230.7,49.8l1.1-3.8c2,.7,3.6,1,5.3,1s3.1-.4,3.1-1.5c0-2.5-9.2-2.1-9.2-7.4s3.2-6,8.2-6,4.1.4,5.7,1l-1.1,3.8c-1.5-.5-2.9-.9-4.4-.9s-2.8.4-2.8,1.3c0,2.6,9.2,1.6,9.2,7.7s-2.8,5.9-8.6,5.9-4.9-.5-6.5-1.2Z"/>
    <path class="st6" d="M277.9,28.9l-8.3,21.9h-6l-8.3-21.9h5.9l5.5,16.6,5.4-16.6h5.8Z"/>
    <path class="st6" d="M280.3,26.8c0-1.8,1.4-3.2,3.2-3.2s3.2,1.4,3.2,3.2-1.4,3.2-3.2,3.2-3.2-1.4-3.2-3.2ZM280.7,32.5h5.6v18.2h-5.6v-18.2Z"/>
    <path class="st6" d="M303,37.5c-1.9,0-3.7.1-6,1v12.2h-5.6v-18.2h4.1l.8,2.1c2.3-1.9,4.4-2.5,6.6-2.5v5.4Z"/>
    <path class="st6" d="M318.8,49.5c-1.3,1-3.3,1.4-4.9,1.4-4.6,0-6.7-2.1-6.7-5.8v-8.7h-2.7v-2.3l3.4-1.4,1.5-4.9h3.3v4.7h5.1v3.9h-5.1v7.4c0,2.4.8,3.1,2.3,3.1,1,0,2-.4,2.9-.8l.9,3.4Z"/>
    <path class="st6" d="M338.9,32.4v18.2h-4.1l-.6-1.5c-2.1,1.2-4,1.9-6,1.9-5.1,0-6.3-3-6.3-7.3v-11.2h5.6v10.5c0,2.9.5,4,2.6,4s2.3-.4,3.3-1.1v-13.4h5.6Z"/>
    <path class="st6" d="M361,50.4c-1.2.3-2.1.4-3.5.4-1.9,0-3.4-.4-4.2-2-1.7,1.2-3.4,2-5.6,2s-5-2-5-4.5c0-4.3,3.4-5.2,9.2-6.9l1-.3h0c0-2.2-1-3.1-2.7-3.1s-3.6.7-6.3,2.4l-1.1-3.8c2.6-1.5,5.6-2.7,9.2-2.7s6.4,1.7,6.4,7.4v6.1c0,.9.4,1.3,1.2,1.3s.7,0,1.2-.2l.2,3.8ZM349.7,46.9c1,0,2-.4,3.2-1.2v-3.4l-.5.2c-3.2,1.2-4.1,1.9-4.1,3.2s.4,1.2,1.4,1.2Z"/>
    <path class="st6" d="M363.7,25h5.6v25.6h-5.6v-25.6Z"/>
    <path class="st6" d="M406.5,28.9v21.8h-5.6v-5.8l.3-7-4.4,7.5h-4.4l-4.5-7.6.4,7.1v5.8h-5.6v-21.8h5.4l6.4,10.7,6.4-10.7h5.4Z"/>
    <path class="st6" d="M428.9,50.4c-1.2.3-2.1.4-3.5.4-1.9,0-3.4-.4-4.2-2-1.7,1.2-3.4,2-5.6,2s-5-2-5-4.5c0-4.3,3.4-5.2,9.2-6.9l1-.3h0c0-2.2-1-3.1-2.7-3.1s-3.6.7-6.3,2.4l-1.1-3.8c2.6-1.5,5.6-2.7,9.2-2.7s6.4,1.7,6.4,7.4v6.1c0,.9.4,1.3,1.2,1.3s.7,0,1.2-.2l.2,3.8ZM417.6,46.9c1,0,2-.4,3.2-1.2v-3.4l-.5.2c-3.2,1.2-4.1,1.9-4.1,3.2s.4,1.2,1.4,1.2Z"/>
    <path class="st6" d="M430.3,41.6c0-5,2.8-9.5,10-9.5s3.8.4,5,1l-1.1,3.8c-1.1-.4-2.5-.9-4-.9-2.8,0-4.4,1.9-4.4,5.5s1.5,5.5,3.9,5.5,3.2-.7,4.7-1.5l1.5,3.5c-1.4,1.1-3.6,2-6.2,2-6.6,0-9.6-4.2-9.6-9.4Z"/>
    <path class="st6" d="M460,32.1c5.1,0,6.3,3,6.3,7.3v11.2h-5.6v-10.5c0-2.9-.5-4-2.6-4s-2.3.4-3.3,1.1v13.4h-5.6v-25.6h5.6v8.4c1.8-.9,3.4-1.4,5.2-1.4h0Z"/>
    <path class="st6" d="M470.9,26.8c0-1.8,1.4-3.2,3.2-3.2s3.2,1.4,3.2,3.2-1.4,3.2-3.2,3.2-3.2-1.4-3.2-3.2ZM471.3,32.5h5.6v18.2h-5.6v-18.2Z"/>
    <path class="st6" d="M492.7,32.1c5.1,0,6.3,3,6.3,7.3v11.2h-5.6v-10.5c0-2.9-.5-4-2.6-4s-2.3.4-3.3,1.1v13.4h-5.6v-18.2h4.1l.6,1.5c2.1-1.2,4-1.9,6-1.9h0Z"/>
    <path class="st6" d="M512.2,47c2.1,0,3.8-.9,5.6-2.1l1.5,3.5c-2.2,1.8-4.3,2.6-7.2,2.6-6.6,0-9.5-4.2-9.5-9.4s3.1-9.5,9.5-9.5,7.6,2.8,7.6,7.7c0,.8-.1,1.9-.4,2.8h-11.2c.2,2.9,1.4,4.4,4.1,4.4ZM514.4,38.9v-.5c0-1.8-1-2.7-2.6-2.7s-3.1,1.3-3.5,3.2h6.1Z"/>
    <path class="st6" d="M522.4,49.8l1.1-3.8c2,.7,3.6,1,5.3,1s3.1-.4,3.1-1.5c0-2.5-9.2-2.1-9.2-7.4s3.2-6,8.2-6,4.1.4,5.7,1l-1.1,3.8c-1.5-.5-2.9-.9-4.4-.9s-2.8.4-2.8,1.3c0,2.6,9.2,1.6,9.2,7.7s-2.8,5.9-8.6,5.9-4.9-.5-6.5-1.2Z"/>
  </g>
<link xmlns="" id="@mobiledyslexic"/></svg>